<svg xmlns="http://www.w3.org/2000/svg" xmlns:xlink="http://www.w3.org/1999/xlink" width="576" zoomAndPan="magnify" viewBox="0 0 432 287.999989" height="384" preserveAspectRatio="xMidYMid meet" version="1.0"><defs><g/></defs><g fill="#000000" fill-opacity="1"><g transform="translate(43.429693, 203.249983)"><g><path d="M 107.835938 -103.15625 C 110.953125 -122.070312 100.230469 -135.914062 77.804688 -136.109375 C 57.71875 -136.304688 44.65625 -125.386719 42.703125 -106.664062 C 39.78125 -74.488281 81.898438 -62.203125 80.339844 -35.683594 C 79.363281 -19.109375 70.589844 -9.75 55.183594 -9.945312 C 38.609375 -10.140625 26.910156 -25.933594 33.734375 -50.503906 C 34.515625 -55.574219 22.816406 -57.328125 21.253906 -53.429688 C 11.308594 -24.960938 22.621094 1.558594 53.625 1.753906 C 78.976562 1.949219 95.160156 -11.894531 96.523438 -35.296875 C 98.28125 -65.714844 57.136719 -80.144531 58.890625 -105.691406 C 59.863281 -119.730469 69.03125 -124.605469 77.21875 -124.410156 C 88.335938 -124.214844 96.328125 -118.363281 95.355469 -103.351562 C 95.550781 -98.28125 106.859375 -97.695312 107.835938 -103.15625 Z M 107.835938 -103.15625 "/></g></g></g><g fill="#000000" fill-opacity="1"><g transform="translate(157.504505, 203.249983)"><g><path d="M 46.214844 -82.484375 C 26.519531 -83.65625 6.824219 -68.835938 0 -44.265625 C -6.433594 -21.644531 2.925781 0.390625 30.421875 1.949219 C 45.824219 2.730469 71.953125 -1.558594 87.945312 -41.339844 C 88.921875 -43.875 82.875 -47.191406 82.09375 -45.046875 C 69.808594 -15.601562 47.386719 -7.410156 32.953125 -9.554688 C 19.5 -11.503906 12.871094 -21.644531 15.015625 -35.296875 C 38.023438 -28.859375 56.746094 -35.683594 64.351562 -50.894531 C 71.371094 -64.351562 66.105469 -81.511719 46.214844 -82.484375 Z M 43.679688 -71.371094 C 53.820312 -71.371094 53.625 -61.816406 49.53125 -54.015625 C 44.460938 -44.265625 32.761719 -40.558594 16.574219 -43.679688 C 20.671875 -58.695312 33.34375 -71.566406 43.679688 -71.371094 Z M 43.679688 -71.371094 "/></g></g></g><g fill="#000000" fill-opacity="1"><g transform="translate(239.014356, 203.249983)"><g><path d="M 19.109375 1.949219 C 38.21875 1.558594 52.84375 -15.988281 63.179688 -41.144531 C 64.351562 -43.875 58.304688 -47.191406 57.328125 -45.046875 C 50.699219 -28.46875 36.269531 -9.359375 22.621094 -9.554688 C 11.894531 -9.75 11.503906 -23.59375 15.601562 -42.703125 C 17.355469 -51.089844 20.28125 -61.816406 23.398438 -72.539062 L 43.679688 -72.539062 C 46.019531 -73.125 48.164062 -80.925781 44.851562 -82.875 L 26.128906 -82.875 C 31.003906 -98.28125 35.878906 -113.101562 40.171875 -124.410156 C 40.949219 -128.699219 27.300781 -131.429688 25.351562 -127.726562 C 21.058594 -116.804688 14.820312 -99.449219 9.75 -82.875 L 1.363281 -82.875 C -1.363281 -81.511719 -3.121094 -74.488281 0.390625 -72.539062 L 6.824219 -72.539062 C -1.558594 -40.949219 -12.675781 2.339844 19.109375 1.949219 Z M 19.109375 1.949219 "/></g></g></g><g fill="#000000" fill-opacity="1"><g transform="translate(295.759239, 203.249983)"><g><path d="M 42.703125 -82.09375 C 19.890625 -78.195312 -0.195312 -54.015625 -4.289062 -30.613281 C -7.800781 -10.921875 0.195312 2.144531 15.40625 1.753906 C 30.226562 1.363281 38.609375 -10.921875 46.019531 -23.203125 C 43.09375 -8.578125 48.945312 0.390625 57.71875 0.390625 C 75.855469 0.390625 89.894531 -20.476562 99.253906 -41.339844 C 100.425781 -44.070312 93.988281 -46.996094 93.210938 -44.851562 C 85.605469 -25.738281 71.953125 -10.53125 63.960938 -10.53125 C 59.28125 -10.53125 58.5 -15.210938 60.058594 -24.179688 C 62.011719 -35.101562 66.496094 -50.113281 68.835938 -58.695312 C 69.03125 -62.59375 56.746094 -66.105469 54.601562 -61.621094 C 47.386719 -30.613281 24.570312 -1.753906 14.820312 -11.699219 C 9.554688 -17.160156 11.113281 -33.148438 18.328125 -46.410156 C 24.960938 -59.28125 35.488281 -69.03125 46.410156 -70.980469 C 54.796875 -72.539062 65.324219 -69.808594 73.515625 -63.570312 C 76.246094 -61.425781 83.460938 -69.226562 81.511719 -71.761719 C 71.175781 -82.289062 54.796875 -84.238281 42.703125 -82.09375 Z M 42.703125 -82.09375 "/></g></g></g></svg>