<svg xmlns="http://www.w3.org/2000/svg" xmlns:xlink="http://www.w3.org/1999/xlink" width="576" zoomAndPan="magnify" viewBox="0 0 432 287.999989" height="384" preserveAspectRatio="xMidYMid meet" version="1.0"><defs><g/></defs><g fill="#000000" fill-opacity="1"><g transform="translate(33.672946, 206.432088)"><g><path d="M 53.710938 4.816406 C 75.390625 4.578125 92.25 -6.984375 101.882812 -20.230469 C 107.664062 -28.664062 112 -36.851562 112.480469 -45.039062 C 113.445312 -60.457031 104.53125 -75.390625 85.988281 -90.5625 C 74.90625 -99.234375 63.105469 -106.21875 49.136719 -112.480469 C 38.539062 -117.539062 35.648438 -125.730469 40.707031 -132.714844 C 47.449219 -141.867188 57.804688 -149.09375 75.628906 -157.28125 L 75.148438 -157.039062 C 76.835938 -157.523438 86.710938 -160.894531 95.140625 -160.171875 L 94.898438 -160.171875 C 97.066406 -159.929688 97.308594 -159.691406 95.621094 -156.316406 C 93.695312 -151.742188 91.527344 -148.609375 87.433594 -143.3125 C 83.335938 -138.011719 83.335938 -136.808594 86.710938 -134.398438 C 89.839844 -131.75 99.957031 -133.4375 104.773438 -137.53125 C 108.628906 -140.902344 111.035156 -144.996094 113.925781 -152.464844 C 116.09375 -158.246094 115.371094 -160.894531 110.3125 -165.230469 C 101.882812 -172.695312 89.117188 -174.625 73.703125 -170.769531 C 59.011719 -166.914062 45.28125 -159.691406 33.960938 -149.574219 C 12.285156 -129.824219 14.210938 -110.074219 39.5 -97.789062 C 52.75 -91.527344 63.585938 -84.542969 73.703125 -76.351562 C 87.671875 -65.515625 93.453125 -54.433594 91.046875 -42.390625 C 85.988281 -19.269531 62.140625 -6.261719 32.996094 -10.839844 C 20.230469 -12.765625 11.5625 -21.4375 9.394531 -34.683594 C 8.429688 -39.984375 9.152344 -45.523438 9.152344 -51.0625 L 9.152344 -50.820312 C 9.632812 -52.75 7.949219 -53.710938 4.816406 -54.917969 L 4.09375 -54.917969 C 1.925781 -55.15625 -0.964844 -54.433594 -1.925781 -53.230469 C -6.742188 -46.726562 -8.429688 -42.152344 -8.429688 -36.128906 C -8.671875 -20.230469 2.167969 -6.023438 19.269531 0.242188 C 28.902344 3.613281 40.464844 5.058594 53.710938 4.816406 Z M 53.710938 4.816406 "/></g></g></g><g fill="#000000" fill-opacity="1"><g transform="translate(162.04981, 206.432088)"><g><path d="M 86.949219 -42.875 C 80.6875 -44.558594 78.28125 -38.539062 77.558594 -37.574219 C 67.199219 -24.328125 63.105469 -20.230469 52.265625 -13.96875 C 38.296875 -5.78125 27.457031 -5.300781 21.675781 -13.246094 C 18.066406 -18.066406 15.898438 -25.289062 15.65625 -33.960938 C 15.65625 -39.742188 16.136719 -44.800781 17.101562 -48.171875 C 17.824219 -50.339844 23.121094 -48.894531 28.421875 -49.617188 C 51.542969 -52.507812 69.847656 -75.628906 65.753906 -96.585938 C 63.105469 -110.074219 46.246094 -117.058594 34.203125 -110.074219 C 28.421875 -106.699219 23.363281 -102.605469 19.507812 -98.03125 C 6.984375 -81.167969 0.480469 -67.679688 -2.890625 -46.003906 C -4.335938 -36.851562 -3.132812 -30.347656 -2.648438 -23.363281 C -0.242188 -2.890625 21.675781 7.949219 47.449219 2.410156 C 62.863281 -1.203125 76.835938 -10.597656 87.914062 -24.808594 L 88.15625 -25.050781 C 91.046875 -29.625 92.007812 -32.515625 92.488281 -36.128906 C 92.730469 -40.222656 91.769531 -41.667969 86.949219 -42.875 Z M 19.75 -60.695312 C 21.917969 -69.125 26.496094 -79.484375 30.589844 -85.746094 C 34.203125 -91.285156 38.539062 -95.378906 42.390625 -98.03125 C 46.484375 -100.679688 46.96875 -100.921875 48.652344 -99.714844 C 49.375 -99.234375 50.339844 -94.898438 49.859375 -92.488281 C 48.894531 -85.503906 44.558594 -77.558594 41.429688 -73.703125 C 34.925781 -66.960938 29.386719 -62.625 21.917969 -60.9375 C 20.230469 -60.457031 19.507812 -60.214844 19.507812 -59.972656 C 19.507812 -60.214844 19.75 -60.214844 19.75 -60.695312 Z M 19.75 -60.695312 "/></g></g></g><g fill="#000000" fill-opacity="1"><g transform="translate(244.904672, 206.432088)"><g><path d="M 24.328125 2.648438 C 40.222656 3.371094 55.636719 -10.597656 60.214844 -16.136719 C 65.273438 -21.917969 68.402344 -27.457031 67.199219 -29.867188 C 64.550781 -35.886719 57.324219 -36.609375 53.953125 -32.035156 C 49.136719 -25.289062 37.574219 -16.378906 31.550781 -13.488281 C 21.4375 -8.429688 15.175781 -11.078125 14.933594 -20.953125 C 14.453125 -40.222656 20.714844 -63.347656 24.808594 -81.167969 C 26.734375 -89.359375 27.699219 -91.527344 27.941406 -91.527344 L 28.421875 -91.527344 C 31.070312 -92.007812 39.019531 -92.25 41.667969 -92.488281 C 46.96875 -92.972656 49.859375 -94.417969 50.339844 -97.066406 C 50.582031 -100.679688 47.691406 -104.050781 42.632812 -104.53125 C 37.816406 -104.773438 35.40625 -104.292969 33.480469 -104.050781 C 31.070312 -103.8125 30.828125 -103.089844 31.3125 -106.460938 C 33.480469 -119.464844 35.40625 -122.117188 36.128906 -134.640625 C 36.371094 -140.179688 34.441406 -142.828125 28.421875 -144.273438 C 22.640625 -145.71875 18.066406 -143.070312 16.859375 -137.050781 C 13.730469 -124.042969 13.488281 -120.910156 10.597656 -109.109375 C 9.632812 -101.644531 10.355469 -102.605469 8.429688 -102.605469 C 2.167969 -102.367188 -2.410156 -100.679688 -3.132812 -98.753906 L -3.371094 -98.511719 C -4.335938 -94.65625 -2.167969 -92.488281 2.410156 -92.007812 L 2.648438 -92.007812 C 8.429688 -92.007812 7.707031 -93.210938 6.742188 -89.359375 C 6.023438 -87.433594 4.335938 -81.167969 4.09375 -79.003906 C 2.410156 -62.863281 -4.578125 -43.355469 -4.816406 -27.457031 C -4.816406 -9.394531 6.023438 1.6875 24.328125 2.648438 Z M 24.328125 2.648438 "/></g></g></g><g fill="#000000" fill-opacity="1"><g transform="translate(302.951242, 206.432088)"><g><path d="M 17.824219 2.167969 C 28.421875 5.539062 38.777344 1.6875 46.726562 -8.671875 L 46.484375 -8.671875 L 48.652344 -11.078125 C 54.675781 2.410156 74.667969 4.816406 86.710938 -6.984375 C 93.453125 -13.246094 99.476562 -21.4375 103.8125 -29.867188 C 105.738281 -33.71875 105.496094 -35.886719 102.367188 -40.222656 L 102.125 -40.222656 C 99.476562 -43.355469 94.65625 -41.910156 91.046875 -35.648438 C 86.710938 -28.179688 84.542969 -26.011719 80.445312 -21.195312 C 77.074219 -16.859375 70.089844 -11.320312 65.996094 -13.007812 C 63.347656 -13.96875 62.863281 -19.507812 62.625 -24.085938 C 62.140625 -36.128906 67.921875 -50.097656 69.609375 -59.011719 C 70.8125 -65.753906 69.367188 -68.164062 62.625 -69.847656 C 56.359375 -71.535156 52.988281 -69.125 51.0625 -62.625 C 46.726562 -48.171875 42.152344 -32.515625 32.757812 -19.027344 C 29.144531 -14.210938 27.21875 -11.320312 24.085938 -10.117188 C 21.675781 -8.910156 22.398438 -8.910156 19.75 -12.285156 C 15.898438 -16.859375 16.621094 -25.050781 15.898438 -33.238281 C 16.859375 -53.710938 22.640625 -71.777344 33.238281 -86.710938 C 43.355469 -100.4375 47.691406 -101.644531 54.195312 -93.453125 C 56.601562 -90.804688 55.878906 -87.433594 56.121094 -84.542969 C 56.359375 -80.445312 60.9375 -77.316406 65.996094 -77.796875 C 70.8125 -78.28125 72.980469 -80.929688 72.980469 -85.988281 C 72.5 -96.34375 62.382812 -107.183594 49.859375 -110.074219 L 50.097656 -110.074219 C 43.355469 -112 35.886719 -110.554688 30.347656 -106.21875 C 19.992188 -98.03125 13.246094 -89.359375 7.707031 -77.074219 C -0.242188 -59.011719 -5.78125 -43.113281 -2.890625 -23.363281 C -0.722656 -10.117188 5.78125 -1.925781 17.824219 2.167969 Z M 17.824219 2.167969 "/></g></g></g></svg>