<svg xmlns="http://www.w3.org/2000/svg" xmlns:xlink="http://www.w3.org/1999/xlink" width="576" zoomAndPan="magnify" viewBox="0 0 432 287.999989" height="384" preserveAspectRatio="xMidYMid meet" version="1.0"><defs><g/></defs><g fill="#ff0000" fill-opacity="1"><g transform="translate(23.239693, 212.558073)"><g><path d="M 83.03125 -26.375 C 83.421875 -31.0625 83.226562 -32.234375 81.46875 -35.558594 C 80.492188 -37.511719 78.539062 -40.246094 77.367188 -41.417969 C 76 -42.589844 74.238281 -44.933594 73.261719 -46.691406 C 69.550781 -52.75 60.757812 -56.851562 46.691406 -59.195312 C 28.71875 -61.933594 25.59375 -62.519531 21.6875 -64.082031 C 16.019531 -66.035156 14.457031 -67.792969 15.042969 -72.089844 C 15.628906 -76.585938 19.730469 -84.789062 24.421875 -91.042969 C 37.316406 -108.039062 55.09375 -121.519531 78.148438 -131.289062 C 90.457031 -136.5625 107.0625 -141.054688 107.0625 -139.296875 C 107.0625 -137.929688 100.027344 -124.058594 95.144531 -115.855469 C 88.113281 -104.132812 81.078125 -90.847656 80.492188 -87.328125 C 79.710938 -84.203125 80.882812 -79.710938 82.25 -79.710938 C 84.007812 -79.710938 90.261719 -84.789062 95.925781 -90.652344 C 107.453125 -102.570312 118.394531 -118.003906 121.324219 -126.207031 C 123.667969 -133.4375 122.886719 -141.25 119.175781 -145.355469 C 118.394531 -146.136719 117.027344 -148.480469 116.050781 -150.628906 C 112.335938 -158.25 104.523438 -159.617188 89.089844 -155.710938 C 68.574219 -150.433594 46.105469 -139.101562 30.671875 -126.597656 C 18.558594 -116.441406 9.964844 -106.476562 4.492188 -95.339844 C 1.171875 -88.699219 0.976562 -88.113281 0.976562 -81.859375 C 0.976562 -76.390625 1.171875 -75.023438 3.320312 -70.722656 C 4.492188 -67.988281 7.035156 -64.082031 8.792969 -61.933594 C 21.101562 -47.082031 24.617188 -45.128906 50.40625 -41.027344 C 57.828125 -39.660156 64.863281 -38.292969 66.035156 -37.707031 C 68.378906 -36.730469 68.378906 -35.363281 66.035156 -29.304688 C 61.738281 -17.777344 42.199219 -3.515625 27.351562 -1.171875 C 22.664062 -0.585938 22.078125 -0.585938 18.753906 -2.34375 C 16.800781 -3.320312 14.652344 -4.882812 14.261719 -6.054688 C 13.675781 -7.035156 12.699219 -8.597656 11.722656 -9.378906 C 10.550781 -10.550781 10.160156 -10.550781 9.574219 -9.769531 C 8.597656 -8.207031 9.769531 -5.46875 13.285156 -1.171875 C 17.777344 4.882812 20.710938 7.621094 25.59375 9.769531 C 28.914062 11.332031 31.0625 11.917969 34.582031 11.917969 C 46.496094 11.917969 61.738281 4.492188 73.261719 -7.035156 C 79.90625 -13.675781 82.640625 -18.949219 83.03125 -26.375 Z M 100.417969 -113.507812 C 101.003906 -113.898438 100.613281 -113.117188 100.027344 -112.140625 C 99.246094 -110.96875 98.660156 -110.1875 98.464844 -110.1875 C 97.878906 -110.1875 99.636719 -113.117188 100.417969 -113.507812 Z M 88.503906 -89.871094 C 87.523438 -88.699219 86.9375 -88.308594 86.9375 -88.894531 C 86.9375 -89.089844 87.523438 -89.675781 88.308594 -90.261719 C 89.480469 -91.042969 89.480469 -91.042969 88.503906 -89.871094 Z M 95.339844 -98.464844 C 92.800781 -95.144531 90.261719 -92.214844 89.871094 -91.824219 C 89.089844 -91.433594 98.464844 -103.9375 100.222656 -105.695312 C 101.789062 -107.257812 101.199219 -106.476562 95.339844 -98.464844 Z M 109.210938 -123.667969 C 107.0625 -119.175781 99.832031 -108.039062 92.214844 -97.488281 C 88.894531 -92.800781 85.765625 -88.699219 85.375 -88.308594 C 84.007812 -86.9375 85.570312 -89.285156 92.019531 -98.660156 C 95.535156 -103.351562 100.808594 -111.164062 103.742188 -115.855469 C 110.773438 -126.988281 110.96875 -127.378906 109.210938 -123.667969 Z M 46.496094 -124.058594 C 47.476562 -124.644531 48.257812 -125.035156 48.257812 -124.839844 C 48.257812 -124.644531 45.714844 -122.496094 42.394531 -120.152344 C 39.269531 -117.808594 33.796875 -112.921875 30.28125 -109.40625 C 26.765625 -105.890625 22.078125 -100.417969 19.730469 -97.292969 C 14.457031 -90.457031 13.285156 -89.675781 17.777344 -95.925781 C 24.03125 -105.109375 34.777344 -116.050781 42.394531 -121.128906 C 43.761719 -122.105469 45.714844 -123.277344 46.496094 -124.058594 Z M 40.636719 -122.886719 C 41.808594 -123.863281 41.808594 -123.863281 40.832031 -122.691406 C 39.855469 -121.324219 39.269531 -120.933594 39.269531 -121.714844 C 39.269531 -121.714844 39.855469 -122.300781 40.636719 -122.886719 Z M 18.167969 -104.328125 C 18.949219 -104.914062 18.363281 -103.9375 16.996094 -102.179688 C 15.628906 -100.417969 14.457031 -99.050781 14.261719 -99.050781 C 13.675781 -99.050781 16.800781 -103.15625 18.167969 -104.328125 Z M 9.574219 -87.523438 C 9.574219 -88.894531 16.019531 -99.050781 20.710938 -104.523438 C 23.054688 -107.453125 27.351562 -111.75 30.085938 -114.289062 C 34.777344 -118.199219 34.582031 -118.003906 27.742188 -110.773438 C 23.640625 -106.476562 18.949219 -101.199219 17.386719 -98.855469 C 15.824219 -96.707031 13.480469 -92.996094 12.113281 -90.847656 C 10.746094 -88.503906 9.574219 -87.132812 9.574219 -87.523438 Z M 68.378906 -20.90625 C 69.355469 -22.46875 70.332031 -23.640625 70.332031 -23.445312 C 70.527344 -23.445312 69.941406 -22.078125 69.160156 -20.515625 C 66.816406 -16.800781 66.425781 -17.191406 68.378906 -20.90625 Z M 67.207031 -15.824219 C 68.964844 -18.167969 71.113281 -21.101562 71.699219 -22.273438 C 72.285156 -23.445312 73.066406 -24.617188 73.261719 -24.617188 C 73.652344 -24.617188 72.675781 -22.078125 70.917969 -19.339844 C 69.941406 -17.972656 67.988281 -15.628906 66.425781 -14.066406 C 63.886719 -11.722656 63.886719 -11.722656 67.207031 -15.824219 Z M 64.082031 -8.792969 C 63.105469 -7.425781 62.324219 -7.035156 62.324219 -7.621094 C 62.324219 -7.816406 62.910156 -8.402344 63.691406 -8.988281 C 64.863281 -9.964844 64.863281 -9.964844 64.082031 -8.792969 Z M 72.285156 -16.800781 C 71.894531 -15.824219 69.941406 -13.871094 68.183594 -12.308594 C 64.667969 -8.988281 65.644531 -10.355469 70.136719 -15.042969 C 71.699219 -16.800781 72.675781 -17.582031 72.285156 -16.800781 Z M 72.285156 -16.800781 "/></g></g></g><g fill="#ff0000" fill-opacity="1"><g transform="translate(133.227272, 212.558073)"><g><path d="M 1.953125 -50.40625 C 3.320312 -50.015625 3.320312 -49.429688 3.125 -38.292969 C 2.929688 -25.59375 3.710938 -18.753906 6.054688 -13.089844 C 8.402344 -7.816406 11.722656 -3.515625 15.628906 -0.390625 C 17.582031 1.171875 19.925781 2.929688 20.90625 3.710938 C 21.6875 4.492188 23.640625 5.664062 25.203125 6.25 C 27.9375 7.230469 28.328125 7.230469 31.84375 6.054688 C 33.996094 5.46875 47.671875 -5.273438 49.429688 -7.621094 C 50.601562 -9.183594 50.601562 -9.183594 49.039062 -10.550781 C 46.691406 -12.308594 46.496094 -12.308594 39.464844 -8.597656 C 32.234375 -4.6875 27.351562 -3.125 24.03125 -3.90625 C 21.882812 -4.296875 21.6875 -4.882812 20.320312 -10.355469 C 17.777344 -19.730469 18.949219 -29.109375 24.421875 -45.910156 L 27.15625 -54.117188 L 33.601562 -57.632812 C 41.417969 -61.933594 51.578125 -65.839844 67.207031 -70.722656 C 73.261719 -72.480469 78.34375 -74.238281 78.539062 -74.433594 C 78.734375 -74.632812 77.953125 -76.195312 76.78125 -77.5625 L 74.433594 -80.296875 L 67.988281 -79.125 C 64.472656 -78.734375 55.679688 -76.976562 48.648438 -75.21875 C 41.613281 -73.652344 35.753906 -72.480469 35.558594 -72.675781 C 35.167969 -73.261719 42.003906 -88.699219 49.234375 -103.546875 C 52.945312 -111.164062 57.046875 -120.152344 58.609375 -123.667969 L 61.347656 -129.921875 L 67.988281 -132.070312 C 76.976562 -135.195312 90.457031 -138.320312 99.246094 -139.492188 C 108.039062 -140.664062 108.820312 -140.859375 109.796875 -143.011719 C 110.382812 -144.378906 110.1875 -145.160156 109.015625 -147.113281 C 108.234375 -148.480469 107.453125 -149.847656 107.453125 -150.238281 C 107.453125 -151.800781 103.351562 -155.511719 100.222656 -156.296875 C 98.464844 -156.882812 91.628906 -157.46875 84.789062 -157.664062 C 73.847656 -158.054688 71.503906 -157.859375 62.128906 -155.90625 C 46.886719 -152.972656 37.121094 -148.871094 33.015625 -143.792969 C 31.0625 -141.25 30.867188 -141.25 31.84375 -137.539062 C 32.625 -134.414062 33.210938 -133.632812 34.582031 -133.632812 C 35.558594 -133.632812 36.144531 -133.242188 35.753906 -132.851562 C 35.558594 -132.265625 35.753906 -131.875 36.339844 -131.875 C 38.292969 -131.875 36.535156 -126.988281 31.648438 -118.003906 C 23.054688 -102.765625 14.847656 -84.203125 10.160156 -70.332031 C 8.597656 -65.449219 7.816406 -64.082031 5.46875 -62.519531 C 1.757812 -60.171875 -1.367188 -56.460938 -1.367188 -54.898438 C -1.171875 -52.945312 0.195312 -50.796875 1.953125 -50.40625 Z M 46.886719 -105.109375 C 46.496094 -104.132812 46.105469 -103.351562 45.910156 -103.351562 C 45.714844 -103.351562 45.910156 -104.132812 46.300781 -105.109375 C 46.691406 -106.085938 47.277344 -106.671875 47.476562 -106.671875 C 47.671875 -106.671875 47.476562 -106.085938 46.886719 -105.109375 Z M 50.992188 -125.816406 C 51.1875 -125.621094 50.015625 -123.082031 48.453125 -120.347656 C 44.152344 -112.921875 33.601562 -91.042969 28.914062 -80.101562 C 26.765625 -75.023438 24.8125 -70.722656 24.421875 -70.722656 C 23.835938 -70.722656 25.203125 -73.847656 30.085938 -85.375 C 36.730469 -100.613281 50.210938 -126.597656 50.992188 -125.816406 Z M 47.277344 -125.230469 C 47.671875 -125.230469 47.277344 -124.253906 46.496094 -122.886719 C 39.074219 -109.796875 24.421875 -78.929688 22.46875 -72.480469 C 22.078125 -71.113281 21.296875 -69.746094 20.90625 -69.746094 C 19.925781 -69.746094 20.121094 -69.941406 24.8125 -80.882812 C 32.625 -99.441406 45.714844 -125.230469 47.277344 -125.230469 Z M 41.808594 -120.347656 C 42.980469 -121.324219 42.980469 -121.324219 42.003906 -119.957031 C 41.027344 -118.589844 40.441406 -118.199219 40.441406 -118.785156 C 40.441406 -118.980469 41.027344 -119.761719 41.808594 -120.347656 Z M 39.074219 -115.660156 C 39.660156 -115.855469 39.464844 -115.269531 38.683594 -114.09375 C 38.097656 -112.726562 37.316406 -111.75 37.121094 -111.75 C 36.535156 -111.75 38.292969 -115.070312 39.074219 -115.660156 Z M 36.339844 -110.578125 C 36.730469 -110.96875 36.339844 -109.601562 35.363281 -107.648438 C 34.191406 -105.5 31.84375 -100.222656 29.695312 -95.925781 C 25.789062 -87.523438 25.398438 -86.742188 25.398438 -87.71875 C 25.398438 -88.699219 35.558594 -109.601562 36.339844 -110.578125 Z M 19.535156 -74.238281 C 20.515625 -77.367188 24.617188 -86.546875 25.007812 -86.546875 C 25.203125 -86.546875 24.03125 -83.617188 22.664062 -80.101562 C 20.121094 -73.652344 18.167969 -69.941406 19.535156 -74.238281 Z M 17.777344 -70.136719 C 18.167969 -70.917969 18.558594 -71.308594 18.753906 -71.113281 C 18.949219 -70.917969 18.753906 -70.136719 18.167969 -69.550781 C 17.582031 -68.769531 17.386719 -68.964844 17.777344 -70.136719 Z M 16.019531 -48.0625 C 16.410156 -48.648438 16.605469 -48.84375 16.605469 -48.453125 C 16.605469 -46.886719 15.433594 -44.152344 15.238281 -45.519531 C 15.238281 -46.105469 15.628906 -47.277344 16.019531 -48.0625 Z M 13.089844 -47.082031 C 13.480469 -47.082031 13.285156 -45.324219 12.699219 -43.175781 C 12.308594 -41.027344 11.722656 -38.488281 11.527344 -37.511719 C 11.136719 -36.144531 11.136719 -36.144531 10.941406 -37.316406 C 10.941406 -39.660156 12.503906 -47.082031 13.089844 -47.082031 Z M 10.355469 -45.128906 C 10.355469 -46.105469 10.550781 -46.300781 10.746094 -45.714844 C 10.941406 -45.128906 10.941406 -44.347656 10.746094 -43.957031 C 10.355469 -43.761719 10.355469 -44.152344 10.355469 -45.128906 Z M 10.355469 -45.128906 "/></g></g></g><g fill="#ff0000" fill-opacity="1"><g transform="translate(226.609444, 212.558073)"><g><path d="M 28.523438 8.402344 C 27.546875 5.859375 28.328125 -13.089844 29.890625 -25.398438 C 33.796875 -57.242188 38.097656 -72.285156 56.65625 -119.371094 C 59.976562 -127.964844 62.714844 -135.78125 62.714844 -136.757812 C 62.714844 -137.539062 63.300781 -138.710938 63.691406 -139.101562 C 65.839844 -140.859375 76.78125 -142.425781 109.992188 -145.746094 C 115.855469 -146.136719 116.832031 -147.308594 114.289062 -149.652344 C 113.507812 -150.433594 112.726562 -151.410156 112.726562 -151.996094 C 112.726562 -153.753906 110.1875 -154.535156 99.636719 -156.296875 C 88.113281 -158.25 81.859375 -158.25 68.183594 -156.6875 C 47.277344 -154.144531 23.835938 -148.089844 13.285156 -142.425781 C 8.207031 -139.6875 2.929688 -135 1.953125 -132.070312 C 0.976562 -129.726562 3.125 -125.621094 5.46875 -125.425781 C 6.445312 -125.230469 7.035156 -124.449219 7.230469 -123.277344 C 7.425781 -122.300781 8.402344 -120.933594 9.378906 -120.542969 C 11.136719 -119.566406 12.308594 -120.152344 31.84375 -128.75 C 34.972656 -130.117188 37.707031 -131.09375 37.902344 -131.09375 C 37.902344 -131.09375 36.535156 -127.183594 34.582031 -122.496094 C 28.328125 -106.671875 19.144531 -75.023438 15.628906 -57.046875 C 10.941406 -33.796875 10.746094 -9.769531 14.847656 -1.171875 C 17.191406 3.320312 22.078125 8.792969 24.226562 9.183594 C 28.71875 9.964844 29.109375 9.769531 28.523438 8.402344 Z M 48.0625 -130.3125 C 51.578125 -137.34375 51.773438 -136.367188 48.453125 -128.945312 C 46.886719 -125.425781 43.957031 -118.199219 41.808594 -112.53125 C 39.660156 -107.0625 36.535156 -98.074219 34.582031 -92.800781 C 32.820312 -87.328125 31.257812 -83.421875 31.257812 -84.007812 C 31.257812 -86.742188 43.566406 -120.738281 48.0625 -130.3125 Z M 30.476562 -81.273438 C 30.867188 -82.445312 31.0625 -82.640625 31.257812 -81.859375 C 31.257812 -81.078125 30.867188 -80.101562 30.476562 -79.320312 C 29.5 -77.953125 29.5 -79.125 30.476562 -81.273438 Z M 26.765625 -67.597656 C 26.765625 -68.574219 26.960938 -68.769531 27.15625 -68.183594 C 27.351562 -67.597656 27.351562 -66.816406 27.15625 -66.621094 C 26.765625 -66.425781 26.570312 -66.816406 26.765625 -67.597656 Z M 17.972656 -10.746094 C 17.582031 -10.355469 17.386719 -10.941406 17.386719 -11.722656 C 17.582031 -12.699219 17.777344 -12.894531 17.972656 -12.308594 C 18.167969 -11.722656 18.167969 -10.941406 17.972656 -10.746094 Z M 20.121094 -16.019531 C 20.121094 -9.378906 20.121094 -3.90625 19.925781 -3.90625 C 19.339844 -3.90625 18.753906 -14.847656 19.339844 -21.6875 C 20.121094 -35.558594 24.421875 -62.519531 25.59375 -61.347656 C 25.59375 -61.152344 25.398438 -58.804688 24.8125 -56.070312 C 22.078125 -44.542969 20.320312 -27.742188 20.121094 -16.019531 Z M 25.59375 -47.277344 C 25.203125 -45.519531 24.617188 -39.855469 23.835938 -34.777344 C 23.25 -29.695312 22.46875 -21.882812 22.078125 -17.386719 L 21.296875 -9.183594 L 21.6875 -18.753906 C 22.078125 -27.9375 24.617188 -49.234375 25.59375 -50.210938 C 25.789062 -50.40625 25.789062 -49.039062 25.59375 -47.277344 Z M 25.984375 -52.164062 C 25.789062 -54.703125 30.28125 -72.285156 34.191406 -84.59375 C 39.660156 -102.179688 51.1875 -132.070312 53.921875 -135.78125 C 54.507812 -136.5625 52.945312 -132.070312 50.40625 -126.011719 C 45.128906 -113.3125 38.097656 -94.167969 34.386719 -82.640625 C 33.015625 -78.34375 30.476562 -69.355469 28.914062 -62.714844 C 27.351562 -56.070312 25.984375 -51.1875 25.984375 -52.164062 Z M 25.984375 -52.164062 "/></g></g></g><g fill="#ff0000" fill-opacity="1"><g transform="translate(291.860095, 212.558073)"><g><path d="M 5.46875 0.390625 C 6.445312 0.390625 7.230469 0.78125 7.621094 1.757812 C 7.816406 2.539062 8.597656 3.125 9.769531 3.125 C 11.917969 3.125 14.847656 -1.757812 20.90625 -15.824219 C 23.25 -21.101562 28.71875 -32.234375 32.820312 -40.246094 L 40.636719 -54.898438 L 47.867188 -57.828125 C 55.679688 -60.757812 65.058594 -63.496094 65.449219 -63.105469 C 65.644531 -62.910156 65.253906 -59.390625 64.667969 -55.289062 C 62.910156 -44.152344 62.910156 -22.46875 64.667969 -15.824219 C 67.597656 -4.6875 72.285156 2.539062 79.515625 7.035156 C 81.664062 8.402344 83.8125 9.574219 84.398438 9.574219 C 86.351562 9.574219 85.960938 7.816406 83.617188 5.46875 C 81.078125 2.929688 81.078125 2.734375 80.492188 -6.054688 C 80.101562 -15.433594 81.273438 -30.476562 83.617188 -42.980469 C 85.375 -53.140625 88.308594 -65.839844 89.089844 -66.621094 C 89.675781 -67.402344 101.59375 -66.035156 104.328125 -65.058594 C 106.28125 -64.277344 105.5 -66.621094 103.351562 -68.964844 C 101.984375 -70.332031 98.855469 -71.894531 95.925781 -72.871094 L 90.652344 -74.632812 L 96.902344 -97.878906 C 107.648438 -137.539062 108.039062 -142.03125 101.789062 -148.285156 C 99.832031 -150.042969 96.902344 -152.972656 95.339844 -154.925781 C 92.410156 -157.859375 91.824219 -158.054688 89.285156 -157.664062 C 86.9375 -157.273438 85.179688 -155.90625 78.929688 -149.066406 C 66.621094 -135.585938 50.601562 -111.359375 33.40625 -79.710938 L 28.132812 -69.941406 L 22.46875 -67.011719 C 16.605469 -63.886719 14.652344 -61.738281 14.652344 -58.414062 C 14.652344 -56.070312 17.191406 -52.554688 18.363281 -53.335938 C 19.730469 -54.117188 18.949219 -52.75 13.089844 -40.441406 C 4.296875 -22.46875 -0.78125 -8.207031 0 -3.710938 C 0.585938 -1.367188 3.125 0.585938 5.46875 0.390625 Z M 71.699219 -33.210938 C 71.503906 -32.625 71.308594 -33.40625 71.308594 -35.167969 C 71.308594 -36.925781 71.503906 -37.511719 71.699219 -36.535156 C 71.894531 -35.558594 71.894531 -33.996094 71.699219 -33.210938 Z M 75.21875 -56.65625 C 74.238281 -51.773438 73.066406 -45.519531 72.675781 -42.980469 L 71.894531 -38.292969 L 72.285156 -42.785156 C 72.675781 -48.648438 75.609375 -65.449219 76.390625 -65.449219 C 76.585938 -65.449219 76.195312 -61.542969 75.21875 -56.65625 Z M 73.066406 -60.171875 C 72.871094 -59.976562 72.675781 -60.367188 72.675781 -61.152344 C 72.675781 -62.128906 72.871094 -62.324219 73.261719 -61.738281 C 73.457031 -61.152344 73.261719 -60.367188 73.066406 -60.171875 Z M 76.390625 -76.976562 L 76.78125 -78.539062 C 77.757812 -83.421875 82.640625 -101.789062 82.835938 -101.394531 C 83.03125 -101.394531 82.054688 -96.511719 80.492188 -90.652344 C 78.929688 -84.789062 77.5625 -79.320312 77.171875 -78.539062 Z M 91.042969 -122.691406 C 92.800781 -129.726562 94.753906 -136.171875 94.949219 -136.953125 L 95.730469 -138.515625 L 95.535156 -136.953125 C 95.339844 -136.171875 91.628906 -122.300781 87.523438 -106.476562 C 83.226562 -90.457031 79.515625 -77.367188 79.125 -77.367188 C 78.734375 -77.367188 78.734375 -77.953125 78.929688 -78.734375 C 79.710938 -81.46875 87.523438 -110.1875 91.042969 -122.691406 Z M 85.960938 -111.359375 C 85.960938 -110.578125 85.570312 -109.40625 85.375 -108.625 C 84.984375 -107.648438 84.59375 -107.453125 84.59375 -108.234375 C 84.59375 -108.820312 84.984375 -109.992188 85.375 -110.96875 C 85.765625 -111.945312 85.960938 -112.140625 85.960938 -111.359375 Z M 82.445312 -136.953125 L 84.984375 -139.296875 L 82.835938 -136.757812 C 81.46875 -135.390625 80.492188 -134.21875 80.296875 -134.21875 C 79.710938 -134.21875 80.296875 -134.804688 82.445312 -136.953125 Z M 75.21875 -101.394531 C 72.871094 -92.800781 70.527344 -83.8125 69.941406 -81.664062 L 68.964844 -77.5625 L 63.496094 -76.976562 C 60.5625 -76.78125 56.851562 -76.390625 55.289062 -76 C 53.726562 -75.804688 52.554688 -75.804688 52.554688 -76.195312 C 52.554688 -77.757812 74.433594 -113.3125 78.34375 -118.003906 C 80.6875 -120.933594 80.882812 -121.910156 75.21875 -101.394531 Z M 44.738281 -78.929688 C 53.140625 -94.167969 72.089844 -124.058594 77.5625 -130.703125 C 78.929688 -132.460938 77.757812 -130.3125 74.632812 -126.011719 C 67.597656 -115.855469 59 -102.179688 50.601562 -87.523438 C 43.957031 -75.804688 39.855469 -69.941406 44.738281 -78.929688 Z M 28.328125 -47.671875 C 29.109375 -48.648438 28.328125 -46.886719 26.765625 -43.761719 C 25.203125 -40.832031 23.640625 -37.902344 23.25 -37.511719 C 22.273438 -36.144531 26.960938 -45.910156 28.328125 -47.671875 Z M 20.121094 -32.234375 C 21.296875 -34.582031 22.273438 -36.339844 22.46875 -36.339844 C 22.664062 -36.339844 21.882812 -34.582031 20.90625 -32.234375 C 19.925781 -30.085938 18.753906 -28.328125 18.558594 -28.328125 C 18.363281 -28.328125 19.144531 -30.085938 20.121094 -32.234375 Z M 15.628906 -22.859375 C 16.605469 -24.8125 17.582031 -25.984375 17.582031 -25.59375 C 17.582031 -25.203125 16.605469 -23.25 15.628906 -21.296875 C 14.652344 -19.339844 13.871094 -18.167969 13.871094 -18.558594 C 13.871094 -18.949219 14.652344 -20.90625 15.628906 -22.859375 Z M 13.675781 -16.996094 C 13.675781 -16.410156 12.699219 -14.066406 11.722656 -11.332031 C 10.550781 -8.792969 9.574219 -7.035156 9.574219 -7.425781 C 9.378906 -8.597656 13.675781 -17.972656 13.675781 -16.996094 Z M 7.816406 -3.90625 C 8.402344 -4.882812 8.597656 -4.882812 8.597656 -3.710938 C 8.597656 -2.929688 8.207031 -2.148438 7.816406 -1.953125 C 6.839844 -1.367188 6.839844 -2.34375 7.816406 -3.90625 Z M 7.816406 -3.90625 "/></g></g></g><g fill="#00ffff" fill-opacity="1"><g transform="translate(38.944944, 208.932232)"><g><path d="M 83.03125 -26.375 C 83.421875 -31.0625 83.226562 -32.234375 81.46875 -35.558594 C 80.492188 -37.511719 78.539062 -40.246094 77.367188 -41.417969 C 76 -42.589844 74.238281 -44.933594 73.261719 -46.691406 C 69.550781 -52.75 60.757812 -56.851562 46.691406 -59.195312 C 28.71875 -61.933594 25.59375 -62.519531 21.6875 -64.082031 C 16.019531 -66.035156 14.457031 -67.792969 15.042969 -72.089844 C 15.628906 -76.585938 19.730469 -84.789062 24.421875 -91.042969 C 37.316406 -108.039062 55.09375 -121.519531 78.148438 -131.289062 C 90.457031 -136.5625 107.0625 -141.054688 107.0625 -139.296875 C 107.0625 -137.929688 100.027344 -124.058594 95.144531 -115.855469 C 88.113281 -104.132812 81.078125 -90.847656 80.492188 -87.328125 C 79.710938 -84.203125 80.882812 -79.710938 82.25 -79.710938 C 84.007812 -79.710938 90.261719 -84.789062 95.925781 -90.652344 C 107.453125 -102.570312 118.394531 -118.003906 121.324219 -126.207031 C 123.667969 -133.4375 122.886719 -141.25 119.175781 -145.355469 C 118.394531 -146.136719 117.027344 -148.480469 116.050781 -150.628906 C 112.335938 -158.25 104.523438 -159.617188 89.089844 -155.710938 C 68.574219 -150.433594 46.105469 -139.101562 30.671875 -126.597656 C 18.558594 -116.441406 9.964844 -106.476562 4.492188 -95.339844 C 1.171875 -88.699219 0.976562 -88.113281 0.976562 -81.859375 C 0.976562 -76.390625 1.171875 -75.023438 3.320312 -70.722656 C 4.492188 -67.988281 7.035156 -64.082031 8.792969 -61.933594 C 21.101562 -47.082031 24.617188 -45.128906 50.40625 -41.027344 C 57.828125 -39.660156 64.863281 -38.292969 66.035156 -37.707031 C 68.378906 -36.730469 68.378906 -35.363281 66.035156 -29.304688 C 61.738281 -17.777344 42.199219 -3.515625 27.351562 -1.171875 C 22.664062 -0.585938 22.078125 -0.585938 18.753906 -2.34375 C 16.800781 -3.320312 14.652344 -4.882812 14.261719 -6.054688 C 13.675781 -7.035156 12.699219 -8.597656 11.722656 -9.378906 C 10.550781 -10.550781 10.160156 -10.550781 9.574219 -9.769531 C 8.597656 -8.207031 9.769531 -5.46875 13.285156 -1.171875 C 17.777344 4.882812 20.710938 7.621094 25.59375 9.769531 C 28.914062 11.332031 31.0625 11.917969 34.582031 11.917969 C 46.496094 11.917969 61.738281 4.492188 73.261719 -7.035156 C 79.90625 -13.675781 82.640625 -18.949219 83.03125 -26.375 Z M 100.417969 -113.507812 C 101.003906 -113.898438 100.613281 -113.117188 100.027344 -112.140625 C 99.246094 -110.96875 98.660156 -110.1875 98.464844 -110.1875 C 97.878906 -110.1875 99.636719 -113.117188 100.417969 -113.507812 Z M 88.503906 -89.871094 C 87.523438 -88.699219 86.9375 -88.308594 86.9375 -88.894531 C 86.9375 -89.089844 87.523438 -89.675781 88.308594 -90.261719 C 89.480469 -91.042969 89.480469 -91.042969 88.503906 -89.871094 Z M 95.339844 -98.464844 C 92.800781 -95.144531 90.261719 -92.214844 89.871094 -91.824219 C 89.089844 -91.433594 98.464844 -103.9375 100.222656 -105.695312 C 101.789062 -107.257812 101.199219 -106.476562 95.339844 -98.464844 Z M 109.210938 -123.667969 C 107.0625 -119.175781 99.832031 -108.039062 92.214844 -97.488281 C 88.894531 -92.800781 85.765625 -88.699219 85.375 -88.308594 C 84.007812 -86.9375 85.570312 -89.285156 92.019531 -98.660156 C 95.535156 -103.351562 100.808594 -111.164062 103.742188 -115.855469 C 110.773438 -126.988281 110.96875 -127.378906 109.210938 -123.667969 Z M 46.496094 -124.058594 C 47.476562 -124.644531 48.257812 -125.035156 48.257812 -124.839844 C 48.257812 -124.644531 45.714844 -122.496094 42.394531 -120.152344 C 39.269531 -117.808594 33.796875 -112.921875 30.28125 -109.40625 C 26.765625 -105.890625 22.078125 -100.417969 19.730469 -97.292969 C 14.457031 -90.457031 13.285156 -89.675781 17.777344 -95.925781 C 24.03125 -105.109375 34.777344 -116.050781 42.394531 -121.128906 C 43.761719 -122.105469 45.714844 -123.277344 46.496094 -124.058594 Z M 40.636719 -122.886719 C 41.808594 -123.863281 41.808594 -123.863281 40.832031 -122.691406 C 39.855469 -121.324219 39.269531 -120.933594 39.269531 -121.714844 C 39.269531 -121.714844 39.855469 -122.300781 40.636719 -122.886719 Z M 18.167969 -104.328125 C 18.949219 -104.914062 18.363281 -103.9375 16.996094 -102.179688 C 15.628906 -100.417969 14.457031 -99.050781 14.261719 -99.050781 C 13.675781 -99.050781 16.800781 -103.15625 18.167969 -104.328125 Z M 9.574219 -87.523438 C 9.574219 -88.894531 16.019531 -99.050781 20.710938 -104.523438 C 23.054688 -107.453125 27.351562 -111.75 30.085938 -114.289062 C 34.777344 -118.199219 34.582031 -118.003906 27.742188 -110.773438 C 23.640625 -106.476562 18.949219 -101.199219 17.386719 -98.855469 C 15.824219 -96.707031 13.480469 -92.996094 12.113281 -90.847656 C 10.746094 -88.503906 9.574219 -87.132812 9.574219 -87.523438 Z M 68.378906 -20.90625 C 69.355469 -22.46875 70.332031 -23.640625 70.332031 -23.445312 C 70.527344 -23.445312 69.941406 -22.078125 69.160156 -20.515625 C 66.816406 -16.800781 66.425781 -17.191406 68.378906 -20.90625 Z M 67.207031 -15.824219 C 68.964844 -18.167969 71.113281 -21.101562 71.699219 -22.273438 C 72.285156 -23.445312 73.066406 -24.617188 73.261719 -24.617188 C 73.652344 -24.617188 72.675781 -22.078125 70.917969 -19.339844 C 69.941406 -17.972656 67.988281 -15.628906 66.425781 -14.066406 C 63.886719 -11.722656 63.886719 -11.722656 67.207031 -15.824219 Z M 64.082031 -8.792969 C 63.105469 -7.425781 62.324219 -7.035156 62.324219 -7.621094 C 62.324219 -7.816406 62.910156 -8.402344 63.691406 -8.988281 C 64.863281 -9.964844 64.863281 -9.964844 64.082031 -8.792969 Z M 72.285156 -16.800781 C 71.894531 -15.824219 69.941406 -13.871094 68.183594 -12.308594 C 64.667969 -8.988281 65.644531 -10.355469 70.136719 -15.042969 C 71.699219 -16.800781 72.675781 -17.582031 72.285156 -16.800781 Z M 72.285156 -16.800781 "/></g></g></g><g fill="#00ffff" fill-opacity="1"><g transform="translate(148.932523, 208.932232)"><g><path d="M 1.953125 -50.40625 C 3.320312 -50.015625 3.320312 -49.429688 3.125 -38.292969 C 2.929688 -25.59375 3.710938 -18.753906 6.054688 -13.089844 C 8.402344 -7.816406 11.722656 -3.515625 15.628906 -0.390625 C 17.582031 1.171875 19.925781 2.929688 20.90625 3.710938 C 21.6875 4.492188 23.640625 5.664062 25.203125 6.25 C 27.9375 7.230469 28.328125 7.230469 31.84375 6.054688 C 33.996094 5.46875 47.671875 -5.273438 49.429688 -7.621094 C 50.601562 -9.183594 50.601562 -9.183594 49.039062 -10.550781 C 46.691406 -12.308594 46.496094 -12.308594 39.464844 -8.597656 C 32.234375 -4.6875 27.351562 -3.125 24.03125 -3.90625 C 21.882812 -4.296875 21.6875 -4.882812 20.320312 -10.355469 C 17.777344 -19.730469 18.949219 -29.109375 24.421875 -45.910156 L 27.15625 -54.117188 L 33.601562 -57.632812 C 41.417969 -61.933594 51.578125 -65.839844 67.207031 -70.722656 C 73.261719 -72.480469 78.34375 -74.238281 78.539062 -74.433594 C 78.734375 -74.632812 77.953125 -76.195312 76.78125 -77.5625 L 74.433594 -80.296875 L 67.988281 -79.125 C 64.472656 -78.734375 55.679688 -76.976562 48.648438 -75.21875 C 41.613281 -73.652344 35.753906 -72.480469 35.558594 -72.675781 C 35.167969 -73.261719 42.003906 -88.699219 49.234375 -103.546875 C 52.945312 -111.164062 57.046875 -120.152344 58.609375 -123.667969 L 61.347656 -129.921875 L 67.988281 -132.070312 C 76.976562 -135.195312 90.457031 -138.320312 99.246094 -139.492188 C 108.039062 -140.664062 108.820312 -140.859375 109.796875 -143.011719 C 110.382812 -144.378906 110.1875 -145.160156 109.015625 -147.113281 C 108.234375 -148.480469 107.453125 -149.847656 107.453125 -150.238281 C 107.453125 -151.800781 103.351562 -155.511719 100.222656 -156.296875 C 98.464844 -156.882812 91.628906 -157.46875 84.789062 -157.664062 C 73.847656 -158.054688 71.503906 -157.859375 62.128906 -155.90625 C 46.886719 -152.972656 37.121094 -148.871094 33.015625 -143.792969 C 31.0625 -141.25 30.867188 -141.25 31.84375 -137.539062 C 32.625 -134.414062 33.210938 -133.632812 34.582031 -133.632812 C 35.558594 -133.632812 36.144531 -133.242188 35.753906 -132.851562 C 35.558594 -132.265625 35.753906 -131.875 36.339844 -131.875 C 38.292969 -131.875 36.535156 -126.988281 31.648438 -118.003906 C 23.054688 -102.765625 14.847656 -84.203125 10.160156 -70.332031 C 8.597656 -65.449219 7.816406 -64.082031 5.46875 -62.519531 C 1.757812 -60.171875 -1.367188 -56.460938 -1.367188 -54.898438 C -1.171875 -52.945312 0.195312 -50.796875 1.953125 -50.40625 Z M 46.886719 -105.109375 C 46.496094 -104.132812 46.105469 -103.351562 45.910156 -103.351562 C 45.714844 -103.351562 45.910156 -104.132812 46.300781 -105.109375 C 46.691406 -106.085938 47.277344 -106.671875 47.476562 -106.671875 C 47.671875 -106.671875 47.476562 -106.085938 46.886719 -105.109375 Z M 50.992188 -125.816406 C 51.1875 -125.621094 50.015625 -123.082031 48.453125 -120.347656 C 44.152344 -112.921875 33.601562 -91.042969 28.914062 -80.101562 C 26.765625 -75.023438 24.8125 -70.722656 24.421875 -70.722656 C 23.835938 -70.722656 25.203125 -73.847656 30.085938 -85.375 C 36.730469 -100.613281 50.210938 -126.597656 50.992188 -125.816406 Z M 47.277344 -125.230469 C 47.671875 -125.230469 47.277344 -124.253906 46.496094 -122.886719 C 39.074219 -109.796875 24.421875 -78.929688 22.46875 -72.480469 C 22.078125 -71.113281 21.296875 -69.746094 20.90625 -69.746094 C 19.925781 -69.746094 20.121094 -69.941406 24.8125 -80.882812 C 32.625 -99.441406 45.714844 -125.230469 47.277344 -125.230469 Z M 41.808594 -120.347656 C 42.980469 -121.324219 42.980469 -121.324219 42.003906 -119.957031 C 41.027344 -118.589844 40.441406 -118.199219 40.441406 -118.785156 C 40.441406 -118.980469 41.027344 -119.761719 41.808594 -120.347656 Z M 39.074219 -115.660156 C 39.660156 -115.855469 39.464844 -115.269531 38.683594 -114.09375 C 38.097656 -112.726562 37.316406 -111.75 37.121094 -111.75 C 36.535156 -111.75 38.292969 -115.070312 39.074219 -115.660156 Z M 36.339844 -110.578125 C 36.730469 -110.96875 36.339844 -109.601562 35.363281 -107.648438 C 34.191406 -105.5 31.84375 -100.222656 29.695312 -95.925781 C 25.789062 -87.523438 25.398438 -86.742188 25.398438 -87.71875 C 25.398438 -88.699219 35.558594 -109.601562 36.339844 -110.578125 Z M 19.535156 -74.238281 C 20.515625 -77.367188 24.617188 -86.546875 25.007812 -86.546875 C 25.203125 -86.546875 24.03125 -83.617188 22.664062 -80.101562 C 20.121094 -73.652344 18.167969 -69.941406 19.535156 -74.238281 Z M 17.777344 -70.136719 C 18.167969 -70.917969 18.558594 -71.308594 18.753906 -71.113281 C 18.949219 -70.917969 18.753906 -70.136719 18.167969 -69.550781 C 17.582031 -68.769531 17.386719 -68.964844 17.777344 -70.136719 Z M 16.019531 -48.0625 C 16.410156 -48.648438 16.605469 -48.84375 16.605469 -48.453125 C 16.605469 -46.886719 15.433594 -44.152344 15.238281 -45.519531 C 15.238281 -46.105469 15.628906 -47.277344 16.019531 -48.0625 Z M 13.089844 -47.082031 C 13.480469 -47.082031 13.285156 -45.324219 12.699219 -43.175781 C 12.308594 -41.027344 11.722656 -38.488281 11.527344 -37.511719 C 11.136719 -36.144531 11.136719 -36.144531 10.941406 -37.316406 C 10.941406 -39.660156 12.503906 -47.082031 13.089844 -47.082031 Z M 10.355469 -45.128906 C 10.355469 -46.105469 10.550781 -46.300781 10.746094 -45.714844 C 10.941406 -45.128906 10.941406 -44.347656 10.746094 -43.957031 C 10.355469 -43.761719 10.355469 -44.152344 10.355469 -45.128906 Z M 10.355469 -45.128906 "/></g></g></g><g fill="#00ffff" fill-opacity="1"><g transform="translate(242.314695, 208.932232)"><g><path d="M 28.523438 8.402344 C 27.546875 5.859375 28.328125 -13.089844 29.890625 -25.398438 C 33.796875 -57.242188 38.097656 -72.285156 56.65625 -119.371094 C 59.976562 -127.964844 62.714844 -135.78125 62.714844 -136.757812 C 62.714844 -137.539062 63.300781 -138.710938 63.691406 -139.101562 C 65.839844 -140.859375 76.78125 -142.425781 109.992188 -145.746094 C 115.855469 -146.136719 116.832031 -147.308594 114.289062 -149.652344 C 113.507812 -150.433594 112.726562 -151.410156 112.726562 -151.996094 C 112.726562 -153.753906 110.1875 -154.535156 99.636719 -156.296875 C 88.113281 -158.25 81.859375 -158.25 68.183594 -156.6875 C 47.277344 -154.144531 23.835938 -148.089844 13.285156 -142.425781 C 8.207031 -139.6875 2.929688 -135 1.953125 -132.070312 C 0.976562 -129.726562 3.125 -125.621094 5.46875 -125.425781 C 6.445312 -125.230469 7.035156 -124.449219 7.230469 -123.277344 C 7.425781 -122.300781 8.402344 -120.933594 9.378906 -120.542969 C 11.136719 -119.566406 12.308594 -120.152344 31.84375 -128.75 C 34.972656 -130.117188 37.707031 -131.09375 37.902344 -131.09375 C 37.902344 -131.09375 36.535156 -127.183594 34.582031 -122.496094 C 28.328125 -106.671875 19.144531 -75.023438 15.628906 -57.046875 C 10.941406 -33.796875 10.746094 -9.769531 14.847656 -1.171875 C 17.191406 3.320312 22.078125 8.792969 24.226562 9.183594 C 28.71875 9.964844 29.109375 9.769531 28.523438 8.402344 Z M 48.0625 -130.3125 C 51.578125 -137.34375 51.773438 -136.367188 48.453125 -128.945312 C 46.886719 -125.425781 43.957031 -118.199219 41.808594 -112.53125 C 39.660156 -107.0625 36.535156 -98.074219 34.582031 -92.800781 C 32.820312 -87.328125 31.257812 -83.421875 31.257812 -84.007812 C 31.257812 -86.742188 43.566406 -120.738281 48.0625 -130.3125 Z M 30.476562 -81.273438 C 30.867188 -82.445312 31.0625 -82.640625 31.257812 -81.859375 C 31.257812 -81.078125 30.867188 -80.101562 30.476562 -79.320312 C 29.5 -77.953125 29.5 -79.125 30.476562 -81.273438 Z M 26.765625 -67.597656 C 26.765625 -68.574219 26.960938 -68.769531 27.15625 -68.183594 C 27.351562 -67.597656 27.351562 -66.816406 27.15625 -66.621094 C 26.765625 -66.425781 26.570312 -66.816406 26.765625 -67.597656 Z M 17.972656 -10.746094 C 17.582031 -10.355469 17.386719 -10.941406 17.386719 -11.722656 C 17.582031 -12.699219 17.777344 -12.894531 17.972656 -12.308594 C 18.167969 -11.722656 18.167969 -10.941406 17.972656 -10.746094 Z M 20.121094 -16.019531 C 20.121094 -9.378906 20.121094 -3.90625 19.925781 -3.90625 C 19.339844 -3.90625 18.753906 -14.847656 19.339844 -21.6875 C 20.121094 -35.558594 24.421875 -62.519531 25.59375 -61.347656 C 25.59375 -61.152344 25.398438 -58.804688 24.8125 -56.070312 C 22.078125 -44.542969 20.320312 -27.742188 20.121094 -16.019531 Z M 25.59375 -47.277344 C 25.203125 -45.519531 24.617188 -39.855469 23.835938 -34.777344 C 23.25 -29.695312 22.46875 -21.882812 22.078125 -17.386719 L 21.296875 -9.183594 L 21.6875 -18.753906 C 22.078125 -27.9375 24.617188 -49.234375 25.59375 -50.210938 C 25.789062 -50.40625 25.789062 -49.039062 25.59375 -47.277344 Z M 25.984375 -52.164062 C 25.789062 -54.703125 30.28125 -72.285156 34.191406 -84.59375 C 39.660156 -102.179688 51.1875 -132.070312 53.921875 -135.78125 C 54.507812 -136.5625 52.945312 -132.070312 50.40625 -126.011719 C 45.128906 -113.3125 38.097656 -94.167969 34.386719 -82.640625 C 33.015625 -78.34375 30.476562 -69.355469 28.914062 -62.714844 C 27.351562 -56.070312 25.984375 -51.1875 25.984375 -52.164062 Z M 25.984375 -52.164062 "/></g></g></g><g fill="#00ffff" fill-opacity="1"><g transform="translate(307.565346, 208.932232)"><g><path d="M 5.46875 0.390625 C 6.445312 0.390625 7.230469 0.78125 7.621094 1.757812 C 7.816406 2.539062 8.597656 3.125 9.769531 3.125 C 11.917969 3.125 14.847656 -1.757812 20.90625 -15.824219 C 23.25 -21.101562 28.71875 -32.234375 32.820312 -40.246094 L 40.636719 -54.898438 L 47.867188 -57.828125 C 55.679688 -60.757812 65.058594 -63.496094 65.449219 -63.105469 C 65.644531 -62.910156 65.253906 -59.390625 64.667969 -55.289062 C 62.910156 -44.152344 62.910156 -22.46875 64.667969 -15.824219 C 67.597656 -4.6875 72.285156 2.539062 79.515625 7.035156 C 81.664062 8.402344 83.8125 9.574219 84.398438 9.574219 C 86.351562 9.574219 85.960938 7.816406 83.617188 5.46875 C 81.078125 2.929688 81.078125 2.734375 80.492188 -6.054688 C 80.101562 -15.433594 81.273438 -30.476562 83.617188 -42.980469 C 85.375 -53.140625 88.308594 -65.839844 89.089844 -66.621094 C 89.675781 -67.402344 101.59375 -66.035156 104.328125 -65.058594 C 106.28125 -64.277344 105.5 -66.621094 103.351562 -68.964844 C 101.984375 -70.332031 98.855469 -71.894531 95.925781 -72.871094 L 90.652344 -74.632812 L 96.902344 -97.878906 C 107.648438 -137.539062 108.039062 -142.03125 101.789062 -148.285156 C 99.832031 -150.042969 96.902344 -152.972656 95.339844 -154.925781 C 92.410156 -157.859375 91.824219 -158.054688 89.285156 -157.664062 C 86.9375 -157.273438 85.179688 -155.90625 78.929688 -149.066406 C 66.621094 -135.585938 50.601562 -111.359375 33.40625 -79.710938 L 28.132812 -69.941406 L 22.46875 -67.011719 C 16.605469 -63.886719 14.652344 -61.738281 14.652344 -58.414062 C 14.652344 -56.070312 17.191406 -52.554688 18.363281 -53.335938 C 19.730469 -54.117188 18.949219 -52.75 13.089844 -40.441406 C 4.296875 -22.46875 -0.78125 -8.207031 0 -3.710938 C 0.585938 -1.367188 3.125 0.585938 5.46875 0.390625 Z M 71.699219 -33.210938 C 71.503906 -32.625 71.308594 -33.40625 71.308594 -35.167969 C 71.308594 -36.925781 71.503906 -37.511719 71.699219 -36.535156 C 71.894531 -35.558594 71.894531 -33.996094 71.699219 -33.210938 Z M 75.21875 -56.65625 C 74.238281 -51.773438 73.066406 -45.519531 72.675781 -42.980469 L 71.894531 -38.292969 L 72.285156 -42.785156 C 72.675781 -48.648438 75.609375 -65.449219 76.390625 -65.449219 C 76.585938 -65.449219 76.195312 -61.542969 75.21875 -56.65625 Z M 73.066406 -60.171875 C 72.871094 -59.976562 72.675781 -60.367188 72.675781 -61.152344 C 72.675781 -62.128906 72.871094 -62.324219 73.261719 -61.738281 C 73.457031 -61.152344 73.261719 -60.367188 73.066406 -60.171875 Z M 76.390625 -76.976562 L 76.78125 -78.539062 C 77.757812 -83.421875 82.640625 -101.789062 82.835938 -101.394531 C 83.03125 -101.394531 82.054688 -96.511719 80.492188 -90.652344 C 78.929688 -84.789062 77.5625 -79.320312 77.171875 -78.539062 Z M 91.042969 -122.691406 C 92.800781 -129.726562 94.753906 -136.171875 94.949219 -136.953125 L 95.730469 -138.515625 L 95.535156 -136.953125 C 95.339844 -136.171875 91.628906 -122.300781 87.523438 -106.476562 C 83.226562 -90.457031 79.515625 -77.367188 79.125 -77.367188 C 78.734375 -77.367188 78.734375 -77.953125 78.929688 -78.734375 C 79.710938 -81.46875 87.523438 -110.1875 91.042969 -122.691406 Z M 85.960938 -111.359375 C 85.960938 -110.578125 85.570312 -109.40625 85.375 -108.625 C 84.984375 -107.648438 84.59375 -107.453125 84.59375 -108.234375 C 84.59375 -108.820312 84.984375 -109.992188 85.375 -110.96875 C 85.765625 -111.945312 85.960938 -112.140625 85.960938 -111.359375 Z M 82.445312 -136.953125 L 84.984375 -139.296875 L 82.835938 -136.757812 C 81.46875 -135.390625 80.492188 -134.21875 80.296875 -134.21875 C 79.710938 -134.21875 80.296875 -134.804688 82.445312 -136.953125 Z M 75.21875 -101.394531 C 72.871094 -92.800781 70.527344 -83.8125 69.941406 -81.664062 L 68.964844 -77.5625 L 63.496094 -76.976562 C 60.5625 -76.78125 56.851562 -76.390625 55.289062 -76 C 53.726562 -75.804688 52.554688 -75.804688 52.554688 -76.195312 C 52.554688 -77.757812 74.433594 -113.3125 78.34375 -118.003906 C 80.6875 -120.933594 80.882812 -121.910156 75.21875 -101.394531 Z M 44.738281 -78.929688 C 53.140625 -94.167969 72.089844 -124.058594 77.5625 -130.703125 C 78.929688 -132.460938 77.757812 -130.3125 74.632812 -126.011719 C 67.597656 -115.855469 59 -102.179688 50.601562 -87.523438 C 43.957031 -75.804688 39.855469 -69.941406 44.738281 -78.929688 Z M 28.328125 -47.671875 C 29.109375 -48.648438 28.328125 -46.886719 26.765625 -43.761719 C 25.203125 -40.832031 23.640625 -37.902344 23.25 -37.511719 C 22.273438 -36.144531 26.960938 -45.910156 28.328125 -47.671875 Z M 20.121094 -32.234375 C 21.296875 -34.582031 22.273438 -36.339844 22.46875 -36.339844 C 22.664062 -36.339844 21.882812 -34.582031 20.90625 -32.234375 C 19.925781 -30.085938 18.753906 -28.328125 18.558594 -28.328125 C 18.363281 -28.328125 19.144531 -30.085938 20.121094 -32.234375 Z M 15.628906 -22.859375 C 16.605469 -24.8125 17.582031 -25.984375 17.582031 -25.59375 C 17.582031 -25.203125 16.605469 -23.25 15.628906 -21.296875 C 14.652344 -19.339844 13.871094 -18.167969 13.871094 -18.558594 C 13.871094 -18.949219 14.652344 -20.90625 15.628906 -22.859375 Z M 13.675781 -16.996094 C 13.675781 -16.410156 12.699219 -14.066406 11.722656 -11.332031 C 10.550781 -8.792969 9.574219 -7.035156 9.574219 -7.425781 C 9.378906 -8.597656 13.675781 -17.972656 13.675781 -16.996094 Z M 7.816406 -3.90625 C 8.402344 -4.882812 8.597656 -4.882812 8.597656 -3.710938 C 8.597656 -2.929688 8.207031 -2.148438 7.816406 -1.953125 C 6.839844 -1.367188 6.839844 -2.34375 7.816406 -3.90625 Z M 7.816406 -3.90625 "/></g></g></g><g fill="#191919" fill-opacity="1"><g transform="translate(31.092319, 210.745151)"><g><path d="M 83.03125 -26.375 C 83.421875 -31.0625 83.226562 -32.234375 81.46875 -35.558594 C 80.492188 -37.511719 78.539062 -40.246094 77.367188 -41.417969 C 76 -42.589844 74.238281 -44.933594 73.261719 -46.691406 C 69.550781 -52.75 60.757812 -56.851562 46.691406 -59.195312 C 28.71875 -61.933594 25.59375 -62.519531 21.6875 -64.082031 C 16.019531 -66.035156 14.457031 -67.792969 15.042969 -72.089844 C 15.628906 -76.585938 19.730469 -84.789062 24.421875 -91.042969 C 37.316406 -108.039062 55.09375 -121.519531 78.148438 -131.289062 C 90.457031 -136.5625 107.0625 -141.054688 107.0625 -139.296875 C 107.0625 -137.929688 100.027344 -124.058594 95.144531 -115.855469 C 88.113281 -104.132812 81.078125 -90.847656 80.492188 -87.328125 C 79.710938 -84.203125 80.882812 -79.710938 82.25 -79.710938 C 84.007812 -79.710938 90.261719 -84.789062 95.925781 -90.652344 C 107.453125 -102.570312 118.394531 -118.003906 121.324219 -126.207031 C 123.667969 -133.4375 122.886719 -141.25 119.175781 -145.355469 C 118.394531 -146.136719 117.027344 -148.480469 116.050781 -150.628906 C 112.335938 -158.25 104.523438 -159.617188 89.089844 -155.710938 C 68.574219 -150.433594 46.105469 -139.101562 30.671875 -126.597656 C 18.558594 -116.441406 9.964844 -106.476562 4.492188 -95.339844 C 1.171875 -88.699219 0.976562 -88.113281 0.976562 -81.859375 C 0.976562 -76.390625 1.171875 -75.023438 3.320312 -70.722656 C 4.492188 -67.988281 7.035156 -64.082031 8.792969 -61.933594 C 21.101562 -47.082031 24.617188 -45.128906 50.40625 -41.027344 C 57.828125 -39.660156 64.863281 -38.292969 66.035156 -37.707031 C 68.378906 -36.730469 68.378906 -35.363281 66.035156 -29.304688 C 61.738281 -17.777344 42.199219 -3.515625 27.351562 -1.171875 C 22.664062 -0.585938 22.078125 -0.585938 18.753906 -2.34375 C 16.800781 -3.320312 14.652344 -4.882812 14.261719 -6.054688 C 13.675781 -7.035156 12.699219 -8.597656 11.722656 -9.378906 C 10.550781 -10.550781 10.160156 -10.550781 9.574219 -9.769531 C 8.597656 -8.207031 9.769531 -5.46875 13.285156 -1.171875 C 17.777344 4.882812 20.710938 7.621094 25.59375 9.769531 C 28.914062 11.332031 31.0625 11.917969 34.582031 11.917969 C 46.496094 11.917969 61.738281 4.492188 73.261719 -7.035156 C 79.90625 -13.675781 82.640625 -18.949219 83.03125 -26.375 Z M 100.417969 -113.507812 C 101.003906 -113.898438 100.613281 -113.117188 100.027344 -112.140625 C 99.246094 -110.96875 98.660156 -110.1875 98.464844 -110.1875 C 97.878906 -110.1875 99.636719 -113.117188 100.417969 -113.507812 Z M 88.503906 -89.871094 C 87.523438 -88.699219 86.9375 -88.308594 86.9375 -88.894531 C 86.9375 -89.089844 87.523438 -89.675781 88.308594 -90.261719 C 89.480469 -91.042969 89.480469 -91.042969 88.503906 -89.871094 Z M 95.339844 -98.464844 C 92.800781 -95.144531 90.261719 -92.214844 89.871094 -91.824219 C 89.089844 -91.433594 98.464844 -103.9375 100.222656 -105.695312 C 101.789062 -107.257812 101.199219 -106.476562 95.339844 -98.464844 Z M 109.210938 -123.667969 C 107.0625 -119.175781 99.832031 -108.039062 92.214844 -97.488281 C 88.894531 -92.800781 85.765625 -88.699219 85.375 -88.308594 C 84.007812 -86.9375 85.570312 -89.285156 92.019531 -98.660156 C 95.535156 -103.351562 100.808594 -111.164062 103.742188 -115.855469 C 110.773438 -126.988281 110.96875 -127.378906 109.210938 -123.667969 Z M 46.496094 -124.058594 C 47.476562 -124.644531 48.257812 -125.035156 48.257812 -124.839844 C 48.257812 -124.644531 45.714844 -122.496094 42.394531 -120.152344 C 39.269531 -117.808594 33.796875 -112.921875 30.28125 -109.40625 C 26.765625 -105.890625 22.078125 -100.417969 19.730469 -97.292969 C 14.457031 -90.457031 13.285156 -89.675781 17.777344 -95.925781 C 24.03125 -105.109375 34.777344 -116.050781 42.394531 -121.128906 C 43.761719 -122.105469 45.714844 -123.277344 46.496094 -124.058594 Z M 40.636719 -122.886719 C 41.808594 -123.863281 41.808594 -123.863281 40.832031 -122.691406 C 39.855469 -121.324219 39.269531 -120.933594 39.269531 -121.714844 C 39.269531 -121.714844 39.855469 -122.300781 40.636719 -122.886719 Z M 18.167969 -104.328125 C 18.949219 -104.914062 18.363281 -103.9375 16.996094 -102.179688 C 15.628906 -100.417969 14.457031 -99.050781 14.261719 -99.050781 C 13.675781 -99.050781 16.800781 -103.15625 18.167969 -104.328125 Z M 9.574219 -87.523438 C 9.574219 -88.894531 16.019531 -99.050781 20.710938 -104.523438 C 23.054688 -107.453125 27.351562 -111.75 30.085938 -114.289062 C 34.777344 -118.199219 34.582031 -118.003906 27.742188 -110.773438 C 23.640625 -106.476562 18.949219 -101.199219 17.386719 -98.855469 C 15.824219 -96.707031 13.480469 -92.996094 12.113281 -90.847656 C 10.746094 -88.503906 9.574219 -87.132812 9.574219 -87.523438 Z M 68.378906 -20.90625 C 69.355469 -22.46875 70.332031 -23.640625 70.332031 -23.445312 C 70.527344 -23.445312 69.941406 -22.078125 69.160156 -20.515625 C 66.816406 -16.800781 66.425781 -17.191406 68.378906 -20.90625 Z M 67.207031 -15.824219 C 68.964844 -18.167969 71.113281 -21.101562 71.699219 -22.273438 C 72.285156 -23.445312 73.066406 -24.617188 73.261719 -24.617188 C 73.652344 -24.617188 72.675781 -22.078125 70.917969 -19.339844 C 69.941406 -17.972656 67.988281 -15.628906 66.425781 -14.066406 C 63.886719 -11.722656 63.886719 -11.722656 67.207031 -15.824219 Z M 64.082031 -8.792969 C 63.105469 -7.425781 62.324219 -7.035156 62.324219 -7.621094 C 62.324219 -7.816406 62.910156 -8.402344 63.691406 -8.988281 C 64.863281 -9.964844 64.863281 -9.964844 64.082031 -8.792969 Z M 72.285156 -16.800781 C 71.894531 -15.824219 69.941406 -13.871094 68.183594 -12.308594 C 64.667969 -8.988281 65.644531 -10.355469 70.136719 -15.042969 C 71.699219 -16.800781 72.675781 -17.582031 72.285156 -16.800781 Z M 72.285156 -16.800781 "/></g></g></g><g fill="#191919" fill-opacity="1"><g transform="translate(141.079898, 210.745151)"><g><path d="M 1.953125 -50.40625 C 3.320312 -50.015625 3.320312 -49.429688 3.125 -38.292969 C 2.929688 -25.59375 3.710938 -18.753906 6.054688 -13.089844 C 8.402344 -7.816406 11.722656 -3.515625 15.628906 -0.390625 C 17.582031 1.171875 19.925781 2.929688 20.90625 3.710938 C 21.6875 4.492188 23.640625 5.664062 25.203125 6.25 C 27.9375 7.230469 28.328125 7.230469 31.84375 6.054688 C 33.996094 5.46875 47.671875 -5.273438 49.429688 -7.621094 C 50.601562 -9.183594 50.601562 -9.183594 49.039062 -10.550781 C 46.691406 -12.308594 46.496094 -12.308594 39.464844 -8.597656 C 32.234375 -4.6875 27.351562 -3.125 24.03125 -3.90625 C 21.882812 -4.296875 21.6875 -4.882812 20.320312 -10.355469 C 17.777344 -19.730469 18.949219 -29.109375 24.421875 -45.910156 L 27.15625 -54.117188 L 33.601562 -57.632812 C 41.417969 -61.933594 51.578125 -65.839844 67.207031 -70.722656 C 73.261719 -72.480469 78.34375 -74.238281 78.539062 -74.433594 C 78.734375 -74.632812 77.953125 -76.195312 76.78125 -77.5625 L 74.433594 -80.296875 L 67.988281 -79.125 C 64.472656 -78.734375 55.679688 -76.976562 48.648438 -75.21875 C 41.613281 -73.652344 35.753906 -72.480469 35.558594 -72.675781 C 35.167969 -73.261719 42.003906 -88.699219 49.234375 -103.546875 C 52.945312 -111.164062 57.046875 -120.152344 58.609375 -123.667969 L 61.347656 -129.921875 L 67.988281 -132.070312 C 76.976562 -135.195312 90.457031 -138.320312 99.246094 -139.492188 C 108.039062 -140.664062 108.820312 -140.859375 109.796875 -143.011719 C 110.382812 -144.378906 110.1875 -145.160156 109.015625 -147.113281 C 108.234375 -148.480469 107.453125 -149.847656 107.453125 -150.238281 C 107.453125 -151.800781 103.351562 -155.511719 100.222656 -156.296875 C 98.464844 -156.882812 91.628906 -157.46875 84.789062 -157.664062 C 73.847656 -158.054688 71.503906 -157.859375 62.128906 -155.90625 C 46.886719 -152.972656 37.121094 -148.871094 33.015625 -143.792969 C 31.0625 -141.25 30.867188 -141.25 31.84375 -137.539062 C 32.625 -134.414062 33.210938 -133.632812 34.582031 -133.632812 C 35.558594 -133.632812 36.144531 -133.242188 35.753906 -132.851562 C 35.558594 -132.265625 35.753906 -131.875 36.339844 -131.875 C 38.292969 -131.875 36.535156 -126.988281 31.648438 -118.003906 C 23.054688 -102.765625 14.847656 -84.203125 10.160156 -70.332031 C 8.597656 -65.449219 7.816406 -64.082031 5.46875 -62.519531 C 1.757812 -60.171875 -1.367188 -56.460938 -1.367188 -54.898438 C -1.171875 -52.945312 0.195312 -50.796875 1.953125 -50.40625 Z M 46.886719 -105.109375 C 46.496094 -104.132812 46.105469 -103.351562 45.910156 -103.351562 C 45.714844 -103.351562 45.910156 -104.132812 46.300781 -105.109375 C 46.691406 -106.085938 47.277344 -106.671875 47.476562 -106.671875 C 47.671875 -106.671875 47.476562 -106.085938 46.886719 -105.109375 Z M 50.992188 -125.816406 C 51.1875 -125.621094 50.015625 -123.082031 48.453125 -120.347656 C 44.152344 -112.921875 33.601562 -91.042969 28.914062 -80.101562 C 26.765625 -75.023438 24.8125 -70.722656 24.421875 -70.722656 C 23.835938 -70.722656 25.203125 -73.847656 30.085938 -85.375 C 36.730469 -100.613281 50.210938 -126.597656 50.992188 -125.816406 Z M 47.277344 -125.230469 C 47.671875 -125.230469 47.277344 -124.253906 46.496094 -122.886719 C 39.074219 -109.796875 24.421875 -78.929688 22.46875 -72.480469 C 22.078125 -71.113281 21.296875 -69.746094 20.90625 -69.746094 C 19.925781 -69.746094 20.121094 -69.941406 24.8125 -80.882812 C 32.625 -99.441406 45.714844 -125.230469 47.277344 -125.230469 Z M 41.808594 -120.347656 C 42.980469 -121.324219 42.980469 -121.324219 42.003906 -119.957031 C 41.027344 -118.589844 40.441406 -118.199219 40.441406 -118.785156 C 40.441406 -118.980469 41.027344 -119.761719 41.808594 -120.347656 Z M 39.074219 -115.660156 C 39.660156 -115.855469 39.464844 -115.269531 38.683594 -114.09375 C 38.097656 -112.726562 37.316406 -111.75 37.121094 -111.75 C 36.535156 -111.75 38.292969 -115.070312 39.074219 -115.660156 Z M 36.339844 -110.578125 C 36.730469 -110.96875 36.339844 -109.601562 35.363281 -107.648438 C 34.191406 -105.5 31.84375 -100.222656 29.695312 -95.925781 C 25.789062 -87.523438 25.398438 -86.742188 25.398438 -87.71875 C 25.398438 -88.699219 35.558594 -109.601562 36.339844 -110.578125 Z M 19.535156 -74.238281 C 20.515625 -77.367188 24.617188 -86.546875 25.007812 -86.546875 C 25.203125 -86.546875 24.03125 -83.617188 22.664062 -80.101562 C 20.121094 -73.652344 18.167969 -69.941406 19.535156 -74.238281 Z M 17.777344 -70.136719 C 18.167969 -70.917969 18.558594 -71.308594 18.753906 -71.113281 C 18.949219 -70.917969 18.753906 -70.136719 18.167969 -69.550781 C 17.582031 -68.769531 17.386719 -68.964844 17.777344 -70.136719 Z M 16.019531 -48.0625 C 16.410156 -48.648438 16.605469 -48.84375 16.605469 -48.453125 C 16.605469 -46.886719 15.433594 -44.152344 15.238281 -45.519531 C 15.238281 -46.105469 15.628906 -47.277344 16.019531 -48.0625 Z M 13.089844 -47.082031 C 13.480469 -47.082031 13.285156 -45.324219 12.699219 -43.175781 C 12.308594 -41.027344 11.722656 -38.488281 11.527344 -37.511719 C 11.136719 -36.144531 11.136719 -36.144531 10.941406 -37.316406 C 10.941406 -39.660156 12.503906 -47.082031 13.089844 -47.082031 Z M 10.355469 -45.128906 C 10.355469 -46.105469 10.550781 -46.300781 10.746094 -45.714844 C 10.941406 -45.128906 10.941406 -44.347656 10.746094 -43.957031 C 10.355469 -43.761719 10.355469 -44.152344 10.355469 -45.128906 Z M 10.355469 -45.128906 "/></g></g></g><g fill="#191919" fill-opacity="1"><g transform="translate(234.462069, 210.745151)"><g><path d="M 28.523438 8.402344 C 27.546875 5.859375 28.328125 -13.089844 29.890625 -25.398438 C 33.796875 -57.242188 38.097656 -72.285156 56.65625 -119.371094 C 59.976562 -127.964844 62.714844 -135.78125 62.714844 -136.757812 C 62.714844 -137.539062 63.300781 -138.710938 63.691406 -139.101562 C 65.839844 -140.859375 76.78125 -142.425781 109.992188 -145.746094 C 115.855469 -146.136719 116.832031 -147.308594 114.289062 -149.652344 C 113.507812 -150.433594 112.726562 -151.410156 112.726562 -151.996094 C 112.726562 -153.753906 110.1875 -154.535156 99.636719 -156.296875 C 88.113281 -158.25 81.859375 -158.25 68.183594 -156.6875 C 47.277344 -154.144531 23.835938 -148.089844 13.285156 -142.425781 C 8.207031 -139.6875 2.929688 -135 1.953125 -132.070312 C 0.976562 -129.726562 3.125 -125.621094 5.46875 -125.425781 C 6.445312 -125.230469 7.035156 -124.449219 7.230469 -123.277344 C 7.425781 -122.300781 8.402344 -120.933594 9.378906 -120.542969 C 11.136719 -119.566406 12.308594 -120.152344 31.84375 -128.75 C 34.972656 -130.117188 37.707031 -131.09375 37.902344 -131.09375 C 37.902344 -131.09375 36.535156 -127.183594 34.582031 -122.496094 C 28.328125 -106.671875 19.144531 -75.023438 15.628906 -57.046875 C 10.941406 -33.796875 10.746094 -9.769531 14.847656 -1.171875 C 17.191406 3.320312 22.078125 8.792969 24.226562 9.183594 C 28.71875 9.964844 29.109375 9.769531 28.523438 8.402344 Z M 48.0625 -130.3125 C 51.578125 -137.34375 51.773438 -136.367188 48.453125 -128.945312 C 46.886719 -125.425781 43.957031 -118.199219 41.808594 -112.53125 C 39.660156 -107.0625 36.535156 -98.074219 34.582031 -92.800781 C 32.820312 -87.328125 31.257812 -83.421875 31.257812 -84.007812 C 31.257812 -86.742188 43.566406 -120.738281 48.0625 -130.3125 Z M 30.476562 -81.273438 C 30.867188 -82.445312 31.0625 -82.640625 31.257812 -81.859375 C 31.257812 -81.078125 30.867188 -80.101562 30.476562 -79.320312 C 29.5 -77.953125 29.5 -79.125 30.476562 -81.273438 Z M 26.765625 -67.597656 C 26.765625 -68.574219 26.960938 -68.769531 27.15625 -68.183594 C 27.351562 -67.597656 27.351562 -66.816406 27.15625 -66.621094 C 26.765625 -66.425781 26.570312 -66.816406 26.765625 -67.597656 Z M 17.972656 -10.746094 C 17.582031 -10.355469 17.386719 -10.941406 17.386719 -11.722656 C 17.582031 -12.699219 17.777344 -12.894531 17.972656 -12.308594 C 18.167969 -11.722656 18.167969 -10.941406 17.972656 -10.746094 Z M 20.121094 -16.019531 C 20.121094 -9.378906 20.121094 -3.90625 19.925781 -3.90625 C 19.339844 -3.90625 18.753906 -14.847656 19.339844 -21.6875 C 20.121094 -35.558594 24.421875 -62.519531 25.59375 -61.347656 C 25.59375 -61.152344 25.398438 -58.804688 24.8125 -56.070312 C 22.078125 -44.542969 20.320312 -27.742188 20.121094 -16.019531 Z M 25.59375 -47.277344 C 25.203125 -45.519531 24.617188 -39.855469 23.835938 -34.777344 C 23.25 -29.695312 22.46875 -21.882812 22.078125 -17.386719 L 21.296875 -9.183594 L 21.6875 -18.753906 C 22.078125 -27.9375 24.617188 -49.234375 25.59375 -50.210938 C 25.789062 -50.40625 25.789062 -49.039062 25.59375 -47.277344 Z M 25.984375 -52.164062 C 25.789062 -54.703125 30.28125 -72.285156 34.191406 -84.59375 C 39.660156 -102.179688 51.1875 -132.070312 53.921875 -135.78125 C 54.507812 -136.5625 52.945312 -132.070312 50.40625 -126.011719 C 45.128906 -113.3125 38.097656 -94.167969 34.386719 -82.640625 C 33.015625 -78.34375 30.476562 -69.355469 28.914062 -62.714844 C 27.351562 -56.070312 25.984375 -51.1875 25.984375 -52.164062 Z M 25.984375 -52.164062 "/></g></g></g><g fill="#191919" fill-opacity="1"><g transform="translate(299.71272, 210.745151)"><g><path d="M 5.46875 0.390625 C 6.445312 0.390625 7.230469 0.78125 7.621094 1.757812 C 7.816406 2.539062 8.597656 3.125 9.769531 3.125 C 11.917969 3.125 14.847656 -1.757812 20.90625 -15.824219 C 23.25 -21.101562 28.71875 -32.234375 32.820312 -40.246094 L 40.636719 -54.898438 L 47.867188 -57.828125 C 55.679688 -60.757812 65.058594 -63.496094 65.449219 -63.105469 C 65.644531 -62.910156 65.253906 -59.390625 64.667969 -55.289062 C 62.910156 -44.152344 62.910156 -22.46875 64.667969 -15.824219 C 67.597656 -4.6875 72.285156 2.539062 79.515625 7.035156 C 81.664062 8.402344 83.8125 9.574219 84.398438 9.574219 C 86.351562 9.574219 85.960938 7.816406 83.617188 5.46875 C 81.078125 2.929688 81.078125 2.734375 80.492188 -6.054688 C 80.101562 -15.433594 81.273438 -30.476562 83.617188 -42.980469 C 85.375 -53.140625 88.308594 -65.839844 89.089844 -66.621094 C 89.675781 -67.402344 101.59375 -66.035156 104.328125 -65.058594 C 106.28125 -64.277344 105.5 -66.621094 103.351562 -68.964844 C 101.984375 -70.332031 98.855469 -71.894531 95.925781 -72.871094 L 90.652344 -74.632812 L 96.902344 -97.878906 C 107.648438 -137.539062 108.039062 -142.03125 101.789062 -148.285156 C 99.832031 -150.042969 96.902344 -152.972656 95.339844 -154.925781 C 92.410156 -157.859375 91.824219 -158.054688 89.285156 -157.664062 C 86.9375 -157.273438 85.179688 -155.90625 78.929688 -149.066406 C 66.621094 -135.585938 50.601562 -111.359375 33.40625 -79.710938 L 28.132812 -69.941406 L 22.46875 -67.011719 C 16.605469 -63.886719 14.652344 -61.738281 14.652344 -58.414062 C 14.652344 -56.070312 17.191406 -52.554688 18.363281 -53.335938 C 19.730469 -54.117188 18.949219 -52.75 13.089844 -40.441406 C 4.296875 -22.46875 -0.78125 -8.207031 0 -3.710938 C 0.585938 -1.367188 3.125 0.585938 5.46875 0.390625 Z M 71.699219 -33.210938 C 71.503906 -32.625 71.308594 -33.40625 71.308594 -35.167969 C 71.308594 -36.925781 71.503906 -37.511719 71.699219 -36.535156 C 71.894531 -35.558594 71.894531 -33.996094 71.699219 -33.210938 Z M 75.21875 -56.65625 C 74.238281 -51.773438 73.066406 -45.519531 72.675781 -42.980469 L 71.894531 -38.292969 L 72.285156 -42.785156 C 72.675781 -48.648438 75.609375 -65.449219 76.390625 -65.449219 C 76.585938 -65.449219 76.195312 -61.542969 75.21875 -56.65625 Z M 73.066406 -60.171875 C 72.871094 -59.976562 72.675781 -60.367188 72.675781 -61.152344 C 72.675781 -62.128906 72.871094 -62.324219 73.261719 -61.738281 C 73.457031 -61.152344 73.261719 -60.367188 73.066406 -60.171875 Z M 76.390625 -76.976562 L 76.78125 -78.539062 C 77.757812 -83.421875 82.640625 -101.789062 82.835938 -101.394531 C 83.03125 -101.394531 82.054688 -96.511719 80.492188 -90.652344 C 78.929688 -84.789062 77.5625 -79.320312 77.171875 -78.539062 Z M 91.042969 -122.691406 C 92.800781 -129.726562 94.753906 -136.171875 94.949219 -136.953125 L 95.730469 -138.515625 L 95.535156 -136.953125 C 95.339844 -136.171875 91.628906 -122.300781 87.523438 -106.476562 C 83.226562 -90.457031 79.515625 -77.367188 79.125 -77.367188 C 78.734375 -77.367188 78.734375 -77.953125 78.929688 -78.734375 C 79.710938 -81.46875 87.523438 -110.1875 91.042969 -122.691406 Z M 85.960938 -111.359375 C 85.960938 -110.578125 85.570312 -109.40625 85.375 -108.625 C 84.984375 -107.648438 84.59375 -107.453125 84.59375 -108.234375 C 84.59375 -108.820312 84.984375 -109.992188 85.375 -110.96875 C 85.765625 -111.945312 85.960938 -112.140625 85.960938 -111.359375 Z M 82.445312 -136.953125 L 84.984375 -139.296875 L 82.835938 -136.757812 C 81.46875 -135.390625 80.492188 -134.21875 80.296875 -134.21875 C 79.710938 -134.21875 80.296875 -134.804688 82.445312 -136.953125 Z M 75.21875 -101.394531 C 72.871094 -92.800781 70.527344 -83.8125 69.941406 -81.664062 L 68.964844 -77.5625 L 63.496094 -76.976562 C 60.5625 -76.78125 56.851562 -76.390625 55.289062 -76 C 53.726562 -75.804688 52.554688 -75.804688 52.554688 -76.195312 C 52.554688 -77.757812 74.433594 -113.3125 78.34375 -118.003906 C 80.6875 -120.933594 80.882812 -121.910156 75.21875 -101.394531 Z M 44.738281 -78.929688 C 53.140625 -94.167969 72.089844 -124.058594 77.5625 -130.703125 C 78.929688 -132.460938 77.757812 -130.3125 74.632812 -126.011719 C 67.597656 -115.855469 59 -102.179688 50.601562 -87.523438 C 43.957031 -75.804688 39.855469 -69.941406 44.738281 -78.929688 Z M 28.328125 -47.671875 C 29.109375 -48.648438 28.328125 -46.886719 26.765625 -43.761719 C 25.203125 -40.832031 23.640625 -37.902344 23.25 -37.511719 C 22.273438 -36.144531 26.960938 -45.910156 28.328125 -47.671875 Z M 20.121094 -32.234375 C 21.296875 -34.582031 22.273438 -36.339844 22.46875 -36.339844 C 22.664062 -36.339844 21.882812 -34.582031 20.90625 -32.234375 C 19.925781 -30.085938 18.753906 -28.328125 18.558594 -28.328125 C 18.363281 -28.328125 19.144531 -30.085938 20.121094 -32.234375 Z M 15.628906 -22.859375 C 16.605469 -24.8125 17.582031 -25.984375 17.582031 -25.59375 C 17.582031 -25.203125 16.605469 -23.25 15.628906 -21.296875 C 14.652344 -19.339844 13.871094 -18.167969 13.871094 -18.558594 C 13.871094 -18.949219 14.652344 -20.90625 15.628906 -22.859375 Z M 13.675781 -16.996094 C 13.675781 -16.410156 12.699219 -14.066406 11.722656 -11.332031 C 10.550781 -8.792969 9.574219 -7.035156 9.574219 -7.425781 C 9.378906 -8.597656 13.675781 -17.972656 13.675781 -16.996094 Z M 7.816406 -3.90625 C 8.402344 -4.882812 8.597656 -4.882812 8.597656 -3.710938 C 8.597656 -2.929688 8.207031 -2.148438 7.816406 -1.953125 C 6.839844 -1.367188 6.839844 -2.34375 7.816406 -3.90625 Z M 7.816406 -3.90625 "/></g></g></g></svg>