<svg xmlns="http://www.w3.org/2000/svg" xmlns:xlink="http://www.w3.org/1999/xlink" width="500" zoomAndPan="magnify" viewBox="0 0 375 374.999991" height="500" preserveAspectRatio="xMidYMid meet" version="1.0"><defs><g/></defs><g fill="#191919" fill-opacity="1"><g transform="translate(30.003214, 234.374985)"><g><path d="M 71.710938 -25 C 74.703125 -41.019531 61.679688 -51.5 49.851562 -61.230469 C 41.917969 -67.816406 32.785156 -74.855469 33.535156 -84.585938 C 34.28125 -95.8125 42.816406 -103.746094 53.746094 -104.046875 C 65.421875 -104.496094 72.007812 -97.757812 70.0625 -88.175781 C 68.867188 -82.789062 65.570312 -79.496094 60.183594 -75.902344 C 59.582031 -75.453125 59.132812 -74.703125 58.984375 -73.957031 C 58.835938 -73.207031 59.132812 -72.609375 59.882812 -72.457031 C 62.277344 -72.160156 66.019531 -71.558594 68.417969 -71.261719 C 69.914062 -70.960938 71.109375 -71.859375 72.007812 -73.207031 C 75.003906 -78.296875 76.199219 -81.441406 77.25 -85.78125 C 80.394531 -98.808594 70.960938 -108.089844 54.644531 -108.089844 C 38.324219 -108.089844 25.75 -98.058594 23.953125 -84.882812 C 22.15625 -71.109375 33.535156 -60.929688 43.714844 -52.398438 C 52.996094 -44.613281 61.378906 -36.230469 60.480469 -24.851562 C 59.582031 -11.675781 50.300781 -1.945312 37.578125 -1.945312 C 24.101562 -1.796875 16.019531 -10.628906 17.964844 -20.960938 C 18.863281 -26.648438 22.90625 -32.9375 30.539062 -38.324219 C 31.289062 -38.925781 31.738281 -39.820312 31.886719 -40.570312 C 32.039062 -41.46875 31.738281 -42.21875 30.839844 -42.367188 C 27.996094 -42.816406 23.804688 -43.414062 20.960938 -43.863281 C 19.011719 -44.164062 17.664062 -43.117188 16.765625 -41.46875 C 13.175781 -35.628906 10.929688 -30.089844 10.03125 -25 C 7.1875 -8.984375 17.367188 2.097656 36.679688 2.097656 C 54.492188 2.097656 68.867188 -9.429688 71.710938 -25 Z M 71.710938 -25 "/></g></g></g><g fill="#191919" fill-opacity="1"><g transform="translate(113.689812, 234.374985)"><g><path d="M 58.386719 -1.496094 L 65.722656 -25 C 66.019531 -25.898438 65.570312 -26.5 64.671875 -26.5 L 61.828125 -26.5 C 60.929688 -26.5 60.03125 -25.898438 59.582031 -25 L 56.441406 -17.515625 C 52.695312 -8.832031 44.164062 -2.996094 35.179688 -2.996094 L 31.4375 -2.996094 C 25 -3.144531 21.558594 -7.335938 22.304688 -13.625 L 30.988281 -62.578125 L 42.21875 -62.578125 C 46.707031 -62.578125 48.804688 -59.582031 47.605469 -55.09375 L 46.707031 -51.949219 C 46.410156 -51.050781 46.859375 -50.453125 47.757812 -50.453125 L 48.65625 -50.453125 C 49.554688 -50.453125 50.300781 -51.050781 50.601562 -51.949219 L 57.488281 -76.199219 C 57.785156 -77.097656 57.339844 -77.699219 56.441406 -77.699219 L 55.542969 -77.699219 C 54.644531 -77.699219 53.746094 -77.097656 53.59375 -76.199219 L 52.546875 -73.058594 C 51.199219 -68.566406 47.308594 -65.570312 42.667969 -65.570312 L 31.4375 -65.570312 L 36.078125 -91.921875 C 37.578125 -98.207031 42.515625 -102.398438 48.953125 -102.550781 L 51.199219 -102.550781 C 60.183594 -102.550781 66.621094 -96.710938 67.367188 -88.027344 L 67.816406 -80.542969 C 67.96875 -79.644531 68.566406 -79.046875 69.464844 -79.046875 L 72.457031 -79.046875 C 73.355469 -79.046875 73.957031 -79.644531 73.957031 -80.542969 L 75.003906 -104.046875 C 75.003906 -104.945312 74.40625 -105.542969 73.507812 -105.542969 L 25.75 -105.542969 C 25.152344 -105.542969 24.550781 -105.09375 24.402344 -104.347656 C 24.253906 -103.597656 24.253906 -102.699219 24.402344 -101.949219 L 25 -96.5625 C 26.199219 -87.878906 25.898438 -76.199219 24.253906 -67.21875 L 19.164062 -38.324219 C 17.664062 -29.34375 13.773438 -17.515625 9.582031 -8.984375 L 7.035156 -3.59375 C 6.585938 -2.84375 6.289062 -1.945312 6.136719 -1.199219 C 6.136719 -0.449219 6.4375 0 7.1875 0 L 56.441406 0 C 57.339844 0 58.085938 -0.597656 58.386719 -1.496094 Z M 58.386719 -1.496094 "/></g></g></g><g fill="#191919" fill-opacity="1"><g transform="translate(191.986953, 234.374985)"><g><path d="M 47.757812 -1.199219 C 47.757812 -1.945312 47.90625 -2.84375 47.757812 -3.59375 L 47.007812 -8.984375 C 45.960938 -17.664062 46.257812 -29.34375 47.757812 -38.324219 L 57.488281 -94.015625 C 58.535156 -99.105469 62.726562 -102.550781 67.816406 -102.550781 C 73.355469 -102.550781 76.949219 -99.105469 77.097656 -93.867188 L 77.25 -80.542969 C 77.25 -79.644531 77.847656 -79.046875 78.746094 -79.046875 L 83.085938 -79.046875 C 83.984375 -79.046875 84.734375 -79.644531 84.882812 -80.542969 L 88.476562 -104.046875 C 88.625 -104.945312 88.175781 -105.542969 87.28125 -105.542969 L 24.402344 -105.542969 C 23.503906 -105.542969 22.753906 -104.945312 22.605469 -104.046875 L 17.964844 -80.542969 C 17.816406 -79.644531 18.265625 -79.046875 19.164062 -79.046875 L 23.503906 -79.046875 C 24.402344 -79.046875 25.300781 -79.644531 25.601562 -80.542969 L 30.539062 -93.867188 C 32.335938 -99.105469 37.277344 -102.550781 42.515625 -102.550781 C 47.90625 -102.550781 50.902344 -99.105469 50.003906 -93.867188 L 39.523438 -34.28125 C 37.726562 -26.050781 34.28125 -16.316406 30.839844 -8.984375 L 28.144531 -3.59375 C 27.84375 -2.84375 27.546875 -1.945312 27.394531 -1.199219 C 27.246094 -0.449219 27.695312 0 28.292969 0 L 46.257812 0 C 47.007812 0 47.605469 -0.449219 47.757812 -1.199219 Z M 47.757812 -1.199219 "/></g></g></g><g fill="#191919" fill-opacity="1"><g transform="translate(277.170632, 234.374985)"><g><path d="M 19.761719 -1.199219 C 19.910156 -1.945312 19.910156 -2.84375 19.910156 -3.59375 L 19.613281 -8.683594 C 19.164062 -16.765625 20.660156 -27.394531 23.503906 -35.929688 L 52.996094 -35.929688 C 53.296875 -27.546875 51.050781 -16.917969 47.308594 -8.832031 L 44.613281 -3.59375 C 44.3125 -2.84375 44.015625 -1.945312 43.863281 -1.199219 C 43.714844 -0.449219 44.164062 0 44.914062 0 L 62.878906 0 C 63.476562 0 64.074219 -0.449219 64.222656 -1.199219 C 64.375 -1.945312 64.375 -2.84375 64.222656 -3.59375 L 63.625 -8.984375 C 62.429688 -17.515625 61.230469 -29.191406 60.480469 -37.875 L 57.785156 -68.714844 C 57.039062 -77.398438 59.132812 -89.074219 63.027344 -97.757812 L 66.46875 -105.695312 C 66.917969 -106.589844 66.621094 -107.191406 65.722656 -107.191406 L 48.207031 -107.191406 C 47.457031 -107.191406 47.007812 -106.742188 46.859375 -106.144531 L 21.109375 -37.875 C 17.816406 -29.191406 12.574219 -17.816406 7.933594 -9.429688 L 4.640625 -3.59375 C 4.339844 -2.84375 3.890625 -1.945312 3.742188 -1.199219 C 3.742188 -0.449219 4.042969 0 4.789062 0 L 18.414062 0 C 19.011719 0 19.613281 -0.449219 19.761719 -1.199219 Z M 47.457031 -99.554688 L 47.605469 -97.910156 C 48.503906 -89.226562 49.554688 -77.546875 50.300781 -68.867188 L 52.847656 -38.925781 L 24.703125 -38.925781 Z M 47.457031 -99.554688 "/></g></g></g></svg>