<svg xmlns="http://www.w3.org/2000/svg" xmlns:xlink="http://www.w3.org/1999/xlink" width="500" zoomAndPan="magnify" viewBox="0 0 375 374.999991" height="500" preserveAspectRatio="xMidYMid meet" version="1.0"><defs><g/></defs><g fill="#000000" fill-opacity="1"><g transform="translate(59.367188, 231.010437)"><g><path d="M 37.746094 3.386719 C 52.980469 3.214844 64.828125 -4.910156 71.601562 -14.21875 C 75.664062 -20.144531 78.710938 -25.898438 79.046875 -31.652344 C 79.726562 -42.484375 73.460938 -52.980469 60.429688 -63.644531 C 52.640625 -69.738281 44.347656 -74.648438 34.53125 -79.046875 C 27.082031 -82.601562 25.050781 -88.359375 28.605469 -93.265625 C 33.34375 -99.699219 40.625 -104.777344 53.148438 -110.53125 L 52.8125 -110.363281 C 53.996094 -110.699219 60.9375 -113.070312 66.859375 -112.5625 L 66.691406 -112.5625 C 68.214844 -112.394531 68.382812 -112.222656 67.199219 -109.855469 C 65.84375 -106.636719 64.320312 -104.4375 61.445312 -100.714844 C 58.566406 -96.992188 58.566406 -96.144531 60.9375 -94.453125 C 63.136719 -92.589844 70.246094 -93.773438 73.632812 -96.652344 C 76.339844 -99.023438 78.03125 -101.898438 80.0625 -107.144531 C 81.585938 -111.207031 81.078125 -113.070312 77.523438 -116.117188 C 71.601562 -121.363281 62.628906 -122.71875 51.796875 -120.011719 C 41.46875 -117.300781 31.824219 -112.222656 23.867188 -105.113281 C 8.632812 -91.234375 9.988281 -77.355469 27.761719 -68.722656 C 37.070312 -64.320312 44.6875 -59.414062 51.796875 -53.65625 C 61.613281 -46.039062 65.675781 -38.253906 63.984375 -29.792969 C 60.429688 -13.542969 43.671875 -4.402344 23.191406 -7.617188 C 14.21875 -8.972656 8.125 -15.066406 6.601562 -24.375 C 5.925781 -28.097656 6.433594 -31.992188 6.433594 -35.882812 L 6.433594 -35.714844 C 6.769531 -37.070312 5.585938 -37.746094 3.386719 -38.59375 L 2.878906 -38.59375 C 1.355469 -38.761719 -0.675781 -38.253906 -1.355469 -37.40625 C -4.738281 -32.839844 -5.925781 -29.621094 -5.925781 -25.390625 C -6.09375 -14.21875 1.523438 -4.230469 13.542969 0.167969 C 20.3125 2.539062 28.4375 3.554688 37.746094 3.386719 Z M 37.746094 3.386719 "/></g></g></g><g fill="#000000" fill-opacity="1"><g transform="translate(149.585764, 231.010437)"><g><path d="M 61.105469 -30.128906 C 56.703125 -31.316406 55.011719 -27.082031 54.503906 -26.40625 C 47.226562 -17.097656 44.347656 -14.21875 36.730469 -9.816406 C 26.914062 -4.0625 19.296875 -3.722656 15.234375 -9.308594 C 12.695312 -12.695312 11.171875 -17.773438 11.003906 -23.867188 C 11.003906 -27.929688 11.339844 -31.484375 12.019531 -33.851562 C 12.527344 -35.375 16.25 -34.359375 19.972656 -34.867188 C 36.222656 -36.898438 49.085938 -53.148438 46.210938 -67.875 C 44.347656 -77.355469 32.5 -82.265625 24.035156 -77.355469 C 19.972656 -74.984375 16.417969 -72.109375 13.710938 -68.890625 C 4.910156 -57.042969 0.339844 -47.5625 -2.03125 -32.332031 C -3.046875 -25.898438 -2.199219 -21.328125 -1.863281 -16.417969 C -0.167969 -2.03125 15.234375 5.585938 33.34375 1.691406 C 44.179688 -0.847656 53.996094 -7.449219 61.78125 -17.433594 L 61.953125 -17.605469 C 63.984375 -20.820312 64.660156 -22.851562 65 -25.390625 C 65.167969 -28.269531 64.492188 -29.285156 61.105469 -30.128906 Z M 13.878906 -42.65625 C 15.402344 -48.578125 18.621094 -55.859375 21.496094 -60.257812 C 24.035156 -64.152344 27.082031 -67.03125 29.792969 -68.890625 C 32.667969 -70.753906 33.007812 -70.921875 34.191406 -70.078125 C 34.699219 -69.738281 35.375 -66.691406 35.039062 -65 C 34.359375 -60.089844 31.316406 -54.503906 29.113281 -51.796875 C 24.542969 -47.054688 20.652344 -44.007812 15.402344 -42.824219 C 14.21875 -42.484375 13.710938 -42.316406 13.710938 -42.148438 C 13.710938 -42.316406 13.878906 -42.316406 13.878906 -42.65625 Z M 13.878906 -42.65625 "/></g></g></g><g fill="#000000" fill-opacity="1"><g transform="translate(207.813139, 231.010437)"><g><path d="M 17.097656 1.863281 C 28.269531 2.371094 39.101562 -7.449219 42.316406 -11.339844 C 45.871094 -15.402344 48.070312 -19.296875 47.226562 -20.988281 C 45.363281 -25.222656 40.285156 -25.730469 37.914062 -22.511719 C 34.53125 -17.773438 26.40625 -11.511719 22.175781 -9.480469 C 15.066406 -5.925781 10.664062 -7.785156 10.496094 -14.726562 C 10.15625 -28.269531 14.558594 -44.515625 17.433594 -57.042969 C 18.789062 -62.796875 19.464844 -64.320312 19.636719 -64.320312 L 19.972656 -64.320312 C 21.835938 -64.660156 27.421875 -64.828125 29.285156 -65 C 33.007812 -65.335938 35.039062 -66.351562 35.375 -68.214844 C 35.546875 -70.753906 33.515625 -73.125 29.960938 -73.460938 C 26.574219 -73.632812 24.882812 -73.292969 23.527344 -73.125 C 21.835938 -72.953125 21.667969 -72.445312 22.003906 -74.816406 C 23.527344 -83.957031 24.882812 -85.820312 25.390625 -94.621094 C 25.558594 -98.515625 24.207031 -100.375 19.972656 -101.390625 C 15.910156 -102.40625 12.695312 -100.542969 11.847656 -96.3125 C 9.648438 -87.171875 9.480469 -84.972656 7.449219 -76.679688 C 6.769531 -71.429688 7.277344 -72.109375 5.925781 -72.109375 C 1.523438 -71.9375 -1.691406 -70.753906 -2.199219 -69.398438 L -2.371094 -69.230469 C -3.046875 -66.523438 -1.523438 -65 1.691406 -64.660156 L 1.863281 -64.660156 C 5.925781 -64.660156 5.417969 -65.507812 4.738281 -62.796875 C 4.230469 -61.445312 3.046875 -57.042969 2.878906 -55.519531 C 1.691406 -44.179688 -3.214844 -30.46875 -3.386719 -19.296875 C -3.386719 -6.601562 4.230469 1.183594 17.097656 1.863281 Z M 17.097656 1.863281 "/></g></g></g><g fill="#000000" fill-opacity="1"><g transform="translate(248.606151, 231.010437)"><g><path d="M 12.527344 1.523438 C 19.972656 3.894531 27.253906 1.183594 32.839844 -6.09375 L 32.667969 -6.09375 L 34.191406 -7.785156 C 38.421875 1.691406 52.472656 3.386719 60.9375 -4.910156 C 65.675781 -9.308594 69.90625 -15.066406 72.953125 -20.988281 C 74.308594 -23.699219 74.140625 -25.222656 71.9375 -28.269531 L 71.769531 -28.269531 C 69.90625 -30.46875 66.523438 -29.453125 63.984375 -25.050781 C 60.9375 -19.804688 59.414062 -18.28125 56.535156 -14.894531 C 54.164062 -11.847656 49.257812 -7.957031 46.378906 -9.140625 C 44.515625 -9.816406 44.179688 -13.710938 44.007812 -16.925781 C 43.671875 -25.390625 47.734375 -35.207031 48.917969 -41.46875 C 49.765625 -46.210938 48.75 -47.902344 44.007812 -49.085938 C 39.609375 -50.273438 37.238281 -48.578125 35.882812 -44.007812 C 32.839844 -33.851562 29.621094 -22.851562 23.019531 -13.371094 C 20.480469 -9.988281 19.128906 -7.957031 16.925781 -7.109375 C 15.234375 -6.261719 15.742188 -6.261719 13.878906 -8.632812 C 11.171875 -11.847656 11.679688 -17.605469 11.171875 -23.359375 C 11.847656 -37.746094 15.910156 -50.441406 23.359375 -60.9375 C 30.46875 -70.585938 33.515625 -71.429688 38.085938 -65.675781 C 39.777344 -63.8125 39.269531 -61.445312 39.4375 -59.414062 C 39.609375 -56.535156 42.824219 -54.335938 46.378906 -54.671875 C 49.765625 -55.011719 51.289062 -56.875 51.289062 -60.429688 C 50.949219 -67.707031 43.839844 -75.324219 35.039062 -77.355469 L 35.207031 -77.355469 C 30.46875 -78.710938 25.222656 -77.695312 21.328125 -74.648438 C 14.050781 -68.890625 9.308594 -62.796875 5.417969 -54.164062 C -0.167969 -41.46875 -4.0625 -30.300781 -2.03125 -16.417969 C -0.507812 -7.109375 4.0625 -1.355469 12.527344 1.523438 Z M 12.527344 1.523438 "/></g></g></g></svg>